<svg width="185" height="199" viewBox="0 0 185 199" fill="none" xmlns="http://www.w3.org/2000/svg">
<path opacity="0.15" d="M130.35 1H14.2815C6.94631 1 1 6.91379 1 14.2088V184.487C1 191.782 6.94631 197.696 14.2815 197.696H130.35C137.686 197.696 143.632 191.782 143.632 184.487V14.2088C143.632 6.91379 137.686 1 130.35 1Z" fill="white"/>
<path d="M130.35 1H14.2815C6.94631 1 1 6.91379 1 14.2088V184.487C1 191.782 6.94631 197.696 14.2815 197.696H130.35C137.686 197.696 143.632 191.782 143.632 184.487V14.2088C143.632 6.91379 137.686 1 130.35 1Z" stroke="white" stroke-miterlimit="10"/>
<path d="M121.073 51.7384H21.6448C20.3887 51.7384 19.3704 52.7512 19.3704 54.0004C19.3704 55.2497 20.3887 56.2625 21.6448 56.2625H121.073C122.329 56.2625 123.348 55.2497 123.348 54.0004C123.348 52.7512 122.329 51.7384 121.073 51.7384Z" fill="white"/>
<path d="M121.073 63.3679H21.6448C20.3887 63.3679 19.3704 64.3806 19.3704 65.6299C19.3704 66.8791 20.3887 67.8919 21.6448 67.8919H121.073C122.329 67.8919 123.348 66.8791 123.348 65.6299C123.348 64.3806 122.329 63.3679 121.073 63.3679Z" fill="white"/>
<path d="M121.073 109.945H21.6448C20.3887 109.945 19.3704 110.958 19.3704 112.207C19.3704 113.457 20.3887 114.469 21.6448 114.469H121.073C122.329 114.469 123.348 113.457 123.348 112.207C123.348 110.958 122.329 109.945 121.073 109.945Z" fill="white"/>
<path d="M121.073 122.224H21.6448C20.3887 122.224 19.3704 123.237 19.3704 124.486C19.3704 125.735 20.3887 126.748 21.6448 126.748H121.073C122.329 126.748 123.348 125.735 123.348 124.486C123.348 123.237 122.329 122.224 121.073 122.224Z" fill="white"/>
<path d="M121.073 134.497H21.6448C20.3887 134.497 19.3704 135.51 19.3704 136.759C19.3704 138.009 20.3887 139.021 21.6448 139.021H121.073C122.329 139.021 123.348 138.009 123.348 136.759C123.348 135.51 122.329 134.497 121.073 134.497Z" fill="white"/>
<path d="M88.4174 145.912H21.6448C20.3887 145.912 19.3704 146.924 19.3704 148.174C19.3704 149.423 20.3887 150.436 21.6448 150.436H88.4174C89.6735 150.436 90.6918 149.423 90.6918 148.174C90.6918 146.924 89.6735 145.912 88.4174 145.912Z" fill="white"/>
<path d="M121.074 145.912H99.5583C98.3021 145.912 97.2838 146.924 97.2838 148.174C97.2838 149.423 98.3021 150.436 99.5583 150.436H121.074C122.33 150.436 123.349 149.423 123.349 148.174C123.349 146.924 122.33 145.912 121.074 145.912Z" fill="white"/>
<path d="M121.073 158.295H54.3006C53.0444 158.295 52.0261 159.308 52.0261 160.557C52.0261 161.806 53.0444 162.819 54.3006 162.819H121.073C122.329 162.819 123.348 161.806 123.348 160.557C123.348 159.308 122.329 158.295 121.073 158.295Z" fill="white"/>
<path d="M43.1608 158.295H21.6448C20.3887 158.295 19.3704 159.308 19.3704 160.557C19.3704 161.806 20.3887 162.819 21.6448 162.819H43.1608C44.4169 162.819 45.4352 161.806 45.4352 160.557C45.4352 159.308 44.4169 158.295 43.1608 158.295Z" fill="white"/>
<path d="M121.07 170.068H67.2079C65.9518 170.068 64.9335 171.08 64.9335 172.33C64.9335 173.579 65.9518 174.592 67.2079 174.592H121.07C122.326 174.592 123.344 173.579 123.344 172.33C123.344 171.08 122.326 170.068 121.07 170.068Z" fill="white"/>
<path d="M56.1656 170.068H21.6448C20.3887 170.068 19.3704 171.08 19.3704 172.33C19.3704 173.579 20.3887 174.592 21.6448 174.592H56.1656C57.4217 174.592 58.44 173.579 58.44 172.33C58.44 171.08 57.4217 170.068 56.1656 170.068Z" fill="white"/>
<path d="M57.2115 87.4297H21.6448C20.3887 87.4297 19.3704 88.4424 19.3704 89.6917C19.3704 90.941 20.3887 91.9537 21.6448 91.9537H57.2115C58.4676 91.9537 59.4859 90.941 59.4859 89.6917C59.4859 88.4424 58.4676 87.4297 57.2115 87.4297Z" fill="white"/>
<path d="M121.892 87.4297H67.9472C66.691 87.4297 65.6727 88.4424 65.6727 89.6917C65.6727 90.941 66.691 91.9537 67.9472 91.9537H121.892C123.148 91.9537 124.167 90.941 124.167 89.6917C124.167 88.4424 123.148 87.4297 121.892 87.4297Z" fill="white"/>
<path d="M43.6588 98.6847H21.6448C20.3887 98.6847 19.3704 99.6974 19.3704 100.947C19.3704 102.196 20.3887 103.209 21.6448 103.209H43.6588C44.915 103.209 45.9333 102.196 45.9333 100.947C45.9333 99.6974 44.915 98.6847 43.6588 98.6847Z" fill="white"/>
<path d="M121.892 98.6847H54.3006C53.0444 98.6847 52.0261 99.6974 52.0261 100.947C52.0261 102.196 53.0444 103.209 54.3006 103.209H121.892C123.148 103.209 124.167 102.196 124.167 100.947C124.167 99.6974 123.148 98.6847 121.892 98.6847Z" fill="white"/>
<path d="M90.3266 74.9968H21.6448C20.3887 74.9968 19.3704 76.0096 19.3704 77.2588C19.3704 78.5081 20.3887 79.5208 21.6448 79.5208H90.3266C91.5827 79.5208 92.601 78.5081 92.601 77.2588C92.601 76.0096 91.5827 74.9968 90.3266 74.9968Z" fill="white"/>
<path d="M122.984 74.9968H101.606C100.35 74.9968 99.3315 76.0096 99.3315 77.2588C99.3315 78.5081 100.35 79.5208 101.606 79.5208H122.984C124.24 79.5208 125.258 78.5081 125.258 77.2588C125.258 76.0096 124.24 74.9968 122.984 74.9968Z" fill="white"/>
<path d="M34.1525 42.25H25.8848L24.8112 45.4036C24.736 45.6175 24.5963 45.8031 24.4111 45.9351C24.2258 46.0671 24.0042 46.139 23.7763 46.1411H20.456C20.2823 46.1372 20.112 46.0928 19.9589 46.0113C19.8057 45.9299 19.674 45.8138 19.5743 45.6723C19.4746 45.5308 19.4098 45.368 19.3851 45.1971C19.3605 45.0261 19.3766 44.8517 19.4322 44.6881L26.6595 24.8253C26.7368 24.6163 26.876 24.4354 27.0588 24.3067C27.2416 24.1779 27.4593 24.1074 27.6833 24.1044H32.4038C32.6277 24.1074 32.8455 24.1779 33.0283 24.3067C33.2111 24.4354 33.3503 24.6163 33.4275 24.8253L40.6604 44.6881C40.716 44.8517 40.7321 45.0261 40.7074 45.1971C40.6828 45.368 40.618 45.5308 40.5183 45.6723C40.4186 45.8138 40.2869 45.9299 40.1337 46.0113C39.9805 46.0928 39.8102 46.1372 39.6366 46.1411H36.2609C36.0331 46.139 35.8114 46.0671 35.6262 45.9351C35.441 45.8031 35.3012 45.6175 35.2261 45.4036L34.1525 42.25ZM32.7635 38.0837L29.9965 30.0153L27.2793 38.0837H32.7635Z" fill="white"/>
<path opacity="0.2" d="M177.198 66.3949L169.141 56.3232L173.242 53.076C173.47 52.9028 173.756 52.8244 174.041 52.8572C174.326 52.8901 174.587 53.0317 174.769 53.2521L181.471 61.6232C181.647 61.8496 181.728 62.1355 181.696 62.4201C181.664 62.7048 181.521 62.9658 181.299 63.1477L177.198 66.3949Z" fill="white"/>
<g filter="url(#filter0_d_1729_577)">
<path d="M111.823 109.622L93.7648 116.053C93.6677 116.086 93.563 116.087 93.4653 116.056C93.3676 116.026 93.2819 115.965 93.22 115.883C93.1589 115.799 93.126 115.697 93.126 115.592C93.126 115.488 93.1589 115.386 93.22 115.302L104.453 99.6561L111.823 109.622Z" fill="#D2D2D2"/>
<path d="M176.379 60.4571L168.447 50.3926L172.484 47.1548C172.708 46.9804 172.992 46.9012 173.274 46.934C173.555 46.9668 173.813 47.109 173.993 47.3304L180.606 55.7047C180.777 55.9307 180.855 56.215 180.823 56.4975C180.79 56.78 180.65 57.0388 180.432 57.2193L176.379 60.4571Z" stroke="white" stroke-miterlimit="10"/>
<path d="M175.773 62.4657L166.899 50.5573L167.531 50.0798C167.817 49.8633 168.177 49.7699 168.531 49.8204C168.886 49.8708 169.206 50.0608 169.421 50.3487L176.677 60.0785C176.892 60.3675 176.984 60.7304 176.932 61.0874C176.881 61.4445 176.692 61.7665 176.405 61.9828L175.773 62.4657Z" fill="#E6E7E8"/>
<path d="M176.459 61.9441L112.461 110.467C112.158 110.696 111.776 110.795 111.4 110.742C111.024 110.688 110.685 110.487 110.456 110.181L103.293 100.594C103.064 100.289 102.965 99.9053 103.017 99.5267C103.069 99.1481 103.268 98.8058 103.571 98.5748L167.569 50.0521C169.952 54.4241 172.946 58.4289 176.459 61.9441Z" fill="white"/>
</g>
<defs>
<filter id="filter0_d_1729_577" x="90.126" y="46.4268" width="94.2039" height="76.6518" filterUnits="userSpaceOnUse" color-interpolation-filters="sRGB">
<feFlood flood-opacity="0" result="BackgroundImageFix"/>
<feColorMatrix in="SourceAlpha" type="matrix" values="0 0 0 0 0 0 0 0 0 0 0 0 0 0 0 0 0 0 127 0" result="hardAlpha"/>
<feOffset dy="4"/>
<feGaussianBlur stdDeviation="1.5"/>
<feComposite in2="hardAlpha" operator="out"/>
<feColorMatrix type="matrix" values="0 0 0 0 0 0 0 0 0 0 0 0 0 0 0 0 0 0 0.15 0"/>
<feBlend mode="normal" in2="BackgroundImageFix" result="effect1_dropShadow_1729_577"/>
<feBlend mode="normal" in="SourceGraphic" in2="effect1_dropShadow_1729_577" result="shape"/>
</filter>
</defs>
</svg>
