<svg width="173" height="199" viewBox="0 0 173 199" fill="none" xmlns="http://www.w3.org/2000/svg">
<path opacity="0.15" d="M131.92 197.906H9.96019C7.59025 197.906 5.31729 196.958 3.64097 195.27C1.96466 193.583 1.0222 191.294 1.02075 188.906V52.6234C1.02075 52.259 1.16406 51.9095 1.41931 51.6513C1.67456 51.3932 2.02095 51.2474 2.38264 51.246L49.8526 51.449C50.2121 51.4506 50.5578 51.31 50.8155 51.0576C51.0732 50.8052 51.2223 50.461 51.2309 50.099L52.2387 2.55317C52.2472 2.19359 52.395 1.85164 52.6505 1.6004C52.906 1.34916 53.249 1.20858 53.606 1.20868H131.92C134.29 1.20868 136.563 2.1567 138.239 3.84435C139.916 5.532 140.858 7.82116 140.859 10.2086V188.906C140.858 191.294 139.916 193.583 138.239 195.27C136.563 196.958 134.29 197.906 131.92 197.906Z" fill="white"/>
<path d="M132.166 197.703H9.71609C7.40444 197.703 5.18748 196.778 3.55289 195.131C1.91831 193.485 1 191.251 1 188.922V50.1757L46.5034 50.5653C47.1156 50.5712 47.7228 50.4544 48.2897 50.2217C48.8566 49.9891 49.372 49.6453 49.8059 49.2102C50.2398 48.7752 50.5835 48.2576 50.8171 47.6876C51.0507 47.1176 51.1694 46.5065 51.1665 45.8898L50.9759 1H132.144C134.456 1 136.673 1.92507 138.308 3.57171C139.942 5.21836 140.861 7.45169 140.861 9.7804V188.944C140.855 191.266 139.937 193.49 138.308 195.131C136.678 196.772 134.47 197.697 132.166 197.703Z" stroke="white" stroke-miterlimit="10"/>
<g opacity="0.15">
<path d="M1.44768 50.1869L45.2079 51.1198C45.9901 51.1381 46.7681 50.9983 47.4959 50.7087C48.2236 50.4191 48.8863 49.9855 49.4449 49.4335C50.0035 48.8815 50.4467 48.2224 50.7481 47.495C51.0496 46.7676 51.2033 45.9867 51.2002 45.1985L51.0095 1.42271C51.0083 1.38897 50.9974 1.35631 50.9781 1.32864C50.9589 1.30098 50.9322 1.2795 50.9011 1.26676C50.8701 1.25402 50.836 1.25057 50.8031 1.25682C50.7702 1.26306 50.7397 1.27874 50.7154 1.30198L25.0029 27.1987L1.34417 49.8795C1.32053 49.9034 1.30399 49.9335 1.29641 49.9664C1.28883 49.9992 1.29052 50.0336 1.30128 50.0655C1.31204 50.0975 1.33146 50.1258 1.35732 50.1472C1.38319 50.1687 1.41448 50.1824 1.44768 50.1869Z" fill="white"/>
</g>
<path d="M124.4 60.482H47.6603C46.4238 60.482 45.4214 61.4918 45.4214 62.7374C45.4214 63.9831 46.4238 64.9929 47.6603 64.9929H124.4C125.637 64.9929 126.639 63.9831 126.639 62.7374C126.639 61.4918 125.637 60.482 124.4 60.482Z" fill="white"/>
<path d="M124.4 72.0775H47.6603C46.4238 72.0775 45.4214 73.0873 45.4214 74.333C45.4214 75.5786 46.4238 76.5884 47.6603 76.5884H124.4C125.637 76.5884 126.639 75.5786 126.639 74.333C126.639 73.0873 125.637 72.0775 124.4 72.0775Z" fill="white"/>
<path d="M124.4 118.521H47.6603C46.4238 118.521 45.4214 119.53 45.4214 120.776C45.4214 122.022 46.4238 123.031 47.6603 123.031H124.4C125.637 123.031 126.639 122.022 126.639 120.776C126.639 119.53 125.637 118.521 124.4 118.521Z" fill="white"/>
<path d="M124.4 130.763H47.6603C46.4238 130.763 45.4214 131.773 45.4214 133.019C45.4214 134.265 46.4238 135.274 47.6603 135.274H124.4C125.637 135.274 126.639 134.265 126.639 133.019C126.639 131.773 125.637 130.763 124.4 130.763Z" fill="white"/>
<path d="M124.4 143.001H47.6603C46.4238 143.001 45.4214 144.011 45.4214 145.257C45.4214 146.502 46.4238 147.512 47.6603 147.512H124.4C125.637 147.512 126.639 146.502 126.639 145.257C126.639 144.011 125.637 143.001 124.4 143.001Z" fill="white"/>
<path d="M98.8891 154.383H47.6603C46.4238 154.383 45.4214 155.393 45.4214 156.638C45.4214 157.884 46.4238 158.894 47.6603 158.894H98.8891C100.126 158.894 101.128 157.884 101.128 156.638C101.128 155.393 100.126 154.383 98.8891 154.383Z" fill="white"/>
<path d="M124.398 154.383H108.519C107.282 154.383 106.28 155.393 106.28 156.638C106.28 157.884 107.282 158.894 108.519 158.894H124.398C125.635 158.894 126.637 157.884 126.637 156.638C126.637 155.393 125.635 154.383 124.398 154.383Z" fill="white"/>
<path d="M124.399 166.73H73.1699C71.9333 166.73 70.9309 167.74 70.9309 168.986C70.9309 170.231 71.9333 171.241 73.1699 171.241H124.399C125.635 171.241 126.638 170.231 126.638 168.986C126.638 167.74 125.635 166.73 124.399 166.73Z" fill="white"/>
<path d="M63.54 166.73H47.6603C46.4238 166.73 45.4214 167.74 45.4214 168.986C45.4214 170.231 46.4238 171.241 47.6603 171.241H63.54C64.7765 171.241 65.7789 170.231 65.7789 168.986C65.7789 167.74 64.7765 166.73 63.54 166.73Z" fill="white"/>
<path d="M74.5168 96.0699H47.6603C46.4238 96.0699 45.4214 97.0798 45.4214 98.3254C45.4214 99.5711 46.4238 100.581 47.6603 100.581H74.5168C75.7533 100.581 76.7557 99.5711 76.7557 98.3254C76.7557 97.0798 75.7533 96.0699 74.5168 96.0699Z" fill="white"/>
<path d="M125.036 96.0699H83.8249C82.5883 96.0699 81.5859 97.0798 81.5859 98.3254C81.5859 99.5711 82.5883 100.581 83.8249 100.581H125.036C126.272 100.581 127.275 99.5711 127.275 98.3254C127.275 97.0798 126.272 96.0699 125.036 96.0699Z" fill="white"/>
<path d="M63.9322 107.298H47.6603C46.4238 107.298 45.4214 108.308 45.4214 109.554C45.4214 110.799 46.4238 111.809 47.6603 111.809H63.9322C65.1687 111.809 66.1711 110.799 66.1711 109.554C66.1711 108.308 65.1687 107.298 63.9322 107.298Z" fill="white"/>
<path d="M125.036 107.298H73.1699C71.9333 107.298 70.9309 108.308 70.9309 109.554C70.9309 110.799 71.9333 111.809 73.1699 111.809H125.036C126.273 111.809 127.275 110.799 127.275 109.554C127.275 108.308 126.273 107.298 125.036 107.298Z" fill="white"/>
<path d="M100.382 83.6731H47.6603C46.4238 83.6731 45.4214 84.6829 45.4214 85.9286C45.4214 87.1742 46.4238 88.184 47.6603 88.184H100.382C101.618 88.184 102.621 87.1742 102.621 85.9286C102.621 84.6829 101.618 83.6731 100.382 83.6731Z" fill="white"/>
<path d="M125.886 83.6731H110.115C108.879 83.6731 107.876 84.6829 107.876 85.9286C107.876 87.1742 108.879 88.184 110.115 88.184H125.886C127.123 88.184 128.125 87.1742 128.125 85.9286C128.125 84.6829 127.123 83.6731 125.886 83.6731Z" fill="white"/>
<path opacity="0.2" d="M35.447 60.482H15.0841C14.35 60.482 13.7549 61.0815 13.7549 61.821V82.3342C13.7549 83.0737 14.35 83.6732 15.0841 83.6732H35.447C36.1811 83.6732 36.7762 83.0737 36.7762 82.3342V61.821C36.7762 61.0815 36.1811 60.482 35.447 60.482Z" fill="white"/>
<path d="M34.8533 60.482H15.6779C14.6158 60.482 13.7549 61.3493 13.7549 62.4191V81.736C13.7549 82.8059 14.6158 83.6732 15.6779 83.6732H34.8533C35.9153 83.6732 36.7762 82.8059 36.7762 81.736V62.4191C36.7762 61.3493 35.9153 60.482 34.8533 60.482Z" stroke="white" stroke-miterlimit="10"/>
<path d="M20.2883 69.4056L18.6243 71.219L24.2126 76.4229L25.8766 74.6095L20.2883 69.4056Z" fill="white"/>
<path d="M32.6307 67.2367L30.8306 65.5605L23.3388 73.7248L25.1389 75.4011L32.6307 67.2367Z" fill="white"/>
<path opacity="0.2" d="M35.447 90.1156H15.0841C14.35 90.1156 13.7549 90.7151 13.7549 91.4546V111.968C13.7549 112.707 14.35 113.307 15.0841 113.307H35.447C36.1811 113.307 36.7762 112.707 36.7762 111.968V91.4546C36.7762 90.7151 36.1811 90.1156 35.447 90.1156Z" fill="white"/>
<path d="M34.8533 90.1156H15.6779C14.6158 90.1156 13.7549 90.9829 13.7549 92.0527V111.37C13.7549 112.439 14.6158 113.307 15.6779 113.307H34.8533C35.9153 113.307 36.7762 112.439 36.7762 111.37V92.0527C36.7762 90.9829 35.9153 90.1156 34.8533 90.1156Z" stroke="white" stroke-miterlimit="10"/>
<path d="M20.2849 99.0366L18.6208 100.85L24.2092 106.054L25.8732 104.241L20.2849 99.0366Z" fill="white"/>
<path d="M32.6341 96.8669L30.834 95.1906L23.3422 103.355L25.1424 105.031L32.6341 96.8669Z" fill="white"/>
<path opacity="0.2" d="M35.447 119.168H15.0841C14.35 119.168 13.7549 119.767 13.7549 120.507V141.02C13.7549 141.76 14.35 142.359 15.0841 142.359H35.447C36.1811 142.359 36.7762 141.76 36.7762 141.02V120.507C36.7762 119.767 36.1811 119.168 35.447 119.168Z" fill="white"/>
<path d="M34.8533 119.168H15.6779C14.6158 119.168 13.7549 120.035 13.7549 121.105V140.422C13.7549 141.492 14.6158 142.359 15.6779 142.359H34.8533C35.9153 142.359 36.7762 141.492 36.7762 140.422V121.105C36.7762 120.035 35.9153 119.168 34.8533 119.168Z" stroke="white" stroke-miterlimit="10"/>
<path d="M20.2849 128.088L18.6208 129.902L24.2092 135.106L25.8732 133.292L20.2849 128.088Z" fill="white"/>
<path d="M32.6307 125.917L30.8306 124.24L23.3388 132.405L25.1389 134.081L32.6307 125.917Z" fill="white"/>
<path opacity="0.2" d="M35.447 148.214H15.0841C14.35 148.214 13.7549 148.814 13.7549 149.553V170.067C13.7549 170.806 14.35 171.406 15.0841 171.406H35.447C36.1811 171.406 36.7762 170.806 36.7762 170.067V149.553C36.7762 148.814 36.1811 148.214 35.447 148.214Z" fill="white"/>
<path d="M34.8533 148.214H15.6779C14.6158 148.214 13.7549 149.082 13.7549 150.152V169.469C13.7549 170.538 14.6158 171.406 15.6779 171.406H34.8533C35.9153 171.406 36.7762 170.538 36.7762 169.469V150.152C36.7762 149.082 35.9153 148.214 34.8533 148.214Z" stroke="white" stroke-miterlimit="10"/>
<path d="M20.2883 157.138L18.6243 158.951L24.2126 164.155L25.8766 162.342L20.2883 157.138Z" fill="white"/>
<path d="M32.6307 154.968L30.8306 153.291L23.3388 161.456L25.1389 163.132L32.6307 154.968Z" fill="white"/>
<path opacity="0.2" d="M164.863 55.5757L156.931 45.5332L160.968 42.2954C161.192 42.121 161.476 42.0418 161.757 42.0746C162.039 42.1074 162.297 42.2496 162.477 42.471L169.079 50.8179C169.252 51.0443 169.331 51.3297 169.298 51.6136C169.266 51.8974 169.124 52.1573 168.905 52.338L164.863 55.5757Z" fill="white"/>
<g filter="url(#filter0_d_1729_534)">
<path d="M100.297 104.658L82.2386 111.09C82.1416 111.122 82.0369 111.123 81.9392 111.093C81.8415 111.062 81.7557 111.002 81.6939 110.92C81.6328 110.835 81.5999 110.734 81.5999 110.629C81.5999 110.524 81.6328 110.423 81.6939 110.338L92.9267 94.6926L100.297 104.658Z" fill="#D2D2D2"/>
<path d="M164.852 55.4936L156.921 45.4291L160.957 42.1913C161.182 42.0169 161.465 41.9377 161.747 41.9705C162.029 42.0033 162.287 42.1455 162.466 42.3669L169.08 50.7412C169.251 50.9672 169.329 51.2515 169.296 51.534C169.264 51.8165 169.123 52.0753 168.905 52.2558L164.852 55.4936Z" stroke="white" stroke-miterlimit="10"/>
<path d="M164.247 57.5022L155.373 45.5938L156.005 45.1164C156.291 44.8998 156.651 44.8065 157.005 44.8569C157.359 44.9073 157.68 45.0973 157.895 45.3853L165.151 55.115C165.366 55.404 165.457 55.7669 165.406 56.124C165.355 56.481 165.165 56.8031 164.879 57.0193L164.247 57.5022Z" fill="#E6E7E8"/>
<path d="M164.933 56.9806L100.935 105.503C100.631 105.733 100.25 105.832 99.874 105.778C99.4981 105.725 99.1587 105.523 98.9303 105.218L91.7667 95.6308C91.5381 95.3257 91.439 94.9418 91.4911 94.5632C91.5432 94.1846 91.7422 93.8423 92.0445 93.6113L156.042 45.0886C158.426 49.4606 161.42 53.4654 164.933 56.9806Z" fill="white"/>
</g>
<defs>
<filter id="filter0_d_1729_534" x="78.5999" y="41.4633" width="94.2036" height="76.6518" filterUnits="userSpaceOnUse" color-interpolation-filters="sRGB">
<feFlood flood-opacity="0" result="BackgroundImageFix"/>
<feColorMatrix in="SourceAlpha" type="matrix" values="0 0 0 0 0 0 0 0 0 0 0 0 0 0 0 0 0 0 127 0" result="hardAlpha"/>
<feOffset dy="4"/>
<feGaussianBlur stdDeviation="1.5"/>
<feComposite in2="hardAlpha" operator="out"/>
<feColorMatrix type="matrix" values="0 0 0 0 0 0 0 0 0 0 0 0 0 0 0 0 0 0 0.15 0"/>
<feBlend mode="normal" in2="BackgroundImageFix" result="effect1_dropShadow_1729_534"/>
<feBlend mode="normal" in="SourceGraphic" in2="effect1_dropShadow_1729_534" result="shape"/>
</filter>
</defs>
</svg>
