<svg width="30" height="33" viewBox="0 0 30 33" fill="none" xmlns="http://www.w3.org/2000/svg">
<path d="M24.7125 18.9062H19.6625C17.15 18.9062 15.9375 17.6275 15.9375 14.9875V5.6375C15.9375 2.9975 17.1625 1.71875 19.6625 1.71875H24.7125C27.225 1.71875 28.4375 2.9975 28.4375 5.6375V14.9875C28.4375 17.6275 27.2125 18.9062 24.7125 18.9062V18.9062ZM19.6625 3.78125C18.075 3.78125 17.8125 4.24875 17.8125 5.6375V14.9875C17.8125 16.3762 18.075 16.8438 19.6625 16.8438H24.7125C26.3 16.8438 26.5625 16.3762 26.5625 14.9875V5.6375C26.5625 4.24875 26.3 3.78125 24.7125 3.78125H19.6625V3.78125ZM24.7125 31.2812H19.6625C17.15 31.2812 15.9375 30.0025 15.9375 27.3625V24.8875C15.9375 22.2475 17.1625 20.9688 19.6625 20.9688H24.7125C27.225 20.9688 28.4375 22.2475 28.4375 24.8875V27.3625C28.4375 30.0025 27.2125 31.2812 24.7125 31.2812ZM19.6625 23.0312C18.075 23.0312 17.8125 23.4988 17.8125 24.8875V27.3625C17.8125 28.7512 18.075 29.2188 19.6625 29.2188H24.7125C26.3 29.2188 26.5625 28.7512 26.5625 27.3625V24.8875C26.5625 23.4988 26.3 23.0312 24.7125 23.0312H19.6625ZM10.3375 31.2812H5.2875C2.775 31.2812 1.5625 30.0025 1.5625 27.3625V18.0125C1.5625 15.3725 2.7875 14.0938 5.2875 14.0938H10.3375C12.85 14.0938 14.0625 15.3725 14.0625 18.0125V27.3625C14.0625 30.0025 12.8375 31.2812 10.3375 31.2812ZM5.2875 16.1562C3.7 16.1562 3.4375 16.6238 3.4375 18.0125V27.3625C3.4375 28.7512 3.7 29.2188 5.2875 29.2188H10.3375C11.925 29.2188 12.1875 28.7512 12.1875 27.3625V18.0125C12.1875 16.6238 11.925 16.1562 10.3375 16.1562H5.2875V16.1562ZM10.3375 12.0312H5.2875C2.775 12.0312 1.5625 10.7525 1.5625 8.1125V5.6375C1.5625 2.9975 2.7875 1.71875 5.2875 1.71875H10.3375C12.85 1.71875 14.0625 2.9975 14.0625 5.6375V8.1125C14.0625 10.7525 12.8375 12.0312 10.3375 12.0312ZM5.2875 3.78125C3.7 3.78125 3.4375 4.24875 3.4375 5.6375V8.1125C3.4375 9.50125 3.7 9.96875 5.2875 9.96875H10.3375C11.925 9.96875 12.1875 9.50125 12.1875 8.1125V5.6375C12.1875 4.24875 11.925 3.78125 10.3375 3.78125H5.2875V3.78125Z" fill="#3A3A3A"/>
</svg>
