<svg width="130" height="45" viewBox="0 0 130 45" fill="none" xmlns="http://www.w3.org/2000/svg">
<g clip-path="url(#clip0_947_53)">
<path d="M122.553 22.8438V34.5348H129.594V37.0011H119.969V22.8438H122.553Z" fill="#444345"/>
<path d="M58.9516 4.13248C57.7485 2.09324 55.7724 1.79547 53.8806 1.77141C51.9195 1.77141 48.8095 2.51733 48.8095 5.30249C48.8095 7.51617 51.1074 8.03651 53.9227 8.58392C57.153 9.23058 60.5036 9.82912 60.5036 13.5828C60.4765 17.5109 56.6747 18.4583 53.8866 18.4583C51.2819 18.4583 48.3133 17.3364 47.0229 14.6776L48.1719 14.076C49.2005 16.1814 51.8323 17.2311 53.8866 17.2311C55.9409 17.2311 59.2223 16.6296 59.2223 13.5527C59.2464 10.942 56.4702 10.3675 53.7212 9.8231C50.6593 9.2005 47.5252 8.55384 47.5252 5.34459C47.4531 1.66313 51.1345 0.532227 53.8866 0.532227C56.2777 0.532227 58.3591 0.929245 60.0103 3.49183L58.9516 4.13248Z" fill="#444345"/>
<path d="M77.8458 2.71286L71.4393 12.9091H71.0062L64.5516 2.71286V18.1846H63.2583V0.775879H64.7892L71.1987 10.9209L77.536 0.775879H79.118V18.1846H77.8458V2.71286Z" fill="#444345"/>
<path d="M96.1209 18.1816L94.2832 13.9046H84.2795L82.4598 18.1816H81.0732L88.5926 0.775879H90.0002L97.5195 18.1816H96.1209ZM93.7749 12.6775L89.2783 2.08424L84.7818 12.6775H93.7749Z" fill="#444345"/>
<path d="M113.006 18.1816H111.307L105.517 11.5947H100.949V18.1816H99.6582V0.775879H107.024C110.66 0.775879 112.504 3.48283 112.528 6.18979C112.549 9.02608 110.757 11.5135 107.096 11.5135L113.006 18.1816ZM100.949 10.3254H106.883C109.8 10.3254 111.094 8.608 111.115 6.17174C111.139 4.1325 109.797 2.02108 107.024 2.02108H100.949V10.3254Z" fill="#444345"/>
<path d="M120.661 1.99395H114.606V0.796875H128V1.99395H121.948V18.1845H120.661V1.99395Z" fill="#444345"/>
<path d="M56.9631 26.2604C56.4939 25.4543 55.2036 24.6844 53.7148 24.6844C51.7989 24.6844 50.8815 25.5145 50.8815 26.5672C50.8815 27.8004 52.2891 28.1432 53.9344 28.3448C56.7857 28.7087 59.4475 29.4787 59.4475 32.8563C59.4475 36.0114 56.7406 37.3679 53.6967 37.3679C50.9026 37.3679 48.752 36.4807 47.7324 33.888L49.8829 32.736C50.4845 34.294 52.0726 34.9798 53.7358 34.9798C55.3991 34.9798 56.8849 34.3933 56.8849 32.8563C56.8849 31.5239 55.5345 30.9765 53.7148 30.775C50.9206 30.4291 48.337 29.6591 48.337 26.486C48.337 23.5745 51.1161 22.3804 53.6396 22.3594C55.7691 22.3594 57.9767 22.985 59.0144 25.1716L56.9631 26.2604Z" fill="#444345"/>
<path d="M73.5059 35.2357C72.8285 35.9227 72.0177 36.4639 71.1233 36.826C70.229 37.188 69.2701 37.3633 68.3055 37.3411C63.2225 37.3411 61.0689 33.7318 61.0509 30.0414C61.0328 26.3509 63.3578 22.5762 68.3055 22.5762C69.2462 22.5783 70.1767 22.7713 71.0406 23.1435C71.9045 23.5157 72.6838 24.0595 73.3314 24.7417L71.611 26.4591C71.1758 26.0281 70.6591 25.688 70.0911 25.4587C69.523 25.2294 68.915 25.1155 68.3025 25.1237C64.994 25.1237 63.5684 27.6743 63.5894 30.0414C63.6105 32.4084 64.9188 34.8357 68.3025 34.8357C69.5929 34.8229 70.8275 34.3071 71.7434 33.398L73.5059 35.2357Z" fill="#444345"/>
<path d="M84.2825 37.0251V31.2984H77.5573V37.0251H74.9736V22.8647H77.5573V28.8321H84.2825V22.8647H86.8451V37.0251H84.2825Z" fill="#444345"/>
<path d="M102.72 30.0052C102.684 33.6656 100.512 37.326 95.7001 37.326C90.8877 37.326 88.665 33.7468 88.665 30.0262C88.665 26.3057 90.969 22.561 95.7001 22.561C100.431 22.561 102.762 26.3026 102.72 30.0052ZM91.2066 30.0653C91.2637 32.3903 92.4758 34.8777 95.7001 34.8777C98.9244 34.8777 100.14 32.3692 100.182 30.0443C100.224 27.6561 98.9274 24.9853 95.7001 24.9853C92.4728 24.9853 91.1464 27.6772 91.2066 30.0623" fill="url(#paint0_linear_947_53)"/>
<path d="M118.074 30.0053C118.044 33.6657 115.864 37.3411 111.054 37.3411C106.245 37.3411 104.013 33.7619 104.013 30.0414C104.013 26.3208 106.323 22.5762 111.054 22.5762C115.785 22.5762 118.113 26.3178 118.074 30.0203V30.0053ZM106.555 30.0804C106.615 32.4054 107.827 34.8928 111.066 34.8928C114.306 34.8928 115.506 32.3844 115.545 30.0594C115.581 27.6713 114.291 25.0004 111.066 25.0004C107.842 25.0004 106.51 27.6923 106.555 30.0774" fill="url(#paint1_linear_947_53)"/>
<path d="M48.7915 44.3128V41.5908H50.3164V41.8826H49.1795V42.7548H50.1329V43.0405H49.1795V44.0241H50.3976V44.3128H48.7915Z" fill="#58595B"/>
<path d="M50.8335 44.3128V41.5908H51.3689L52.1268 43.6962L52.9058 41.5908H53.3841V44.3128H53.0201V42.0991L52.2682 44.1323H51.8952L51.1674 42.0931V44.3128H50.8335Z" fill="#58595B"/>
<path d="M54.0791 44.3159V41.5939H54.804C54.9926 41.5826 55.1816 41.6082 55.3604 41.6691C55.4711 41.7181 55.5622 41.8028 55.6191 41.9097C55.6849 42.0313 55.7161 42.1686 55.7093 42.3067C55.7133 42.4766 55.6729 42.6446 55.592 42.794C55.5037 42.9424 55.3681 43.0568 55.207 43.1188C55.0238 43.1976 54.8259 43.2366 54.6265 43.2331H54.4611V44.3159H54.0791ZM54.4611 42.9414H54.6115C54.7075 42.9508 54.8044 42.9402 54.896 42.9102C54.9877 42.8801 55.0721 42.8314 55.1438 42.7669C55.2502 42.6481 55.3073 42.4932 55.3032 42.3338C55.3051 42.2517 55.2876 42.1703 55.2521 42.0962C55.214 42.0293 55.1562 41.9758 55.0867 41.9428C54.9606 41.8932 54.8248 41.8726 54.6897 41.8826H54.4611V42.9414V42.9414Z" fill="#58595B"/>
<path d="M57.2882 44.3852C57.0514 44.3907 56.8179 44.3292 56.6145 44.2078C56.4197 44.0881 56.2648 43.9133 56.1694 43.7055C56.066 43.4683 56.0127 43.2123 56.0127 42.9536C56.0127 42.6948 56.066 42.4388 56.1694 42.2016C56.2612 41.9901 56.4154 41.8117 56.6115 41.6903C56.8184 41.5701 57.0535 41.5068 57.2928 41.5068C57.532 41.5068 57.7671 41.5701 57.974 41.6903C58.1701 41.8117 58.3243 41.9901 58.4161 42.2016C58.5175 42.434 58.5687 42.6851 58.5665 42.9385C58.5694 43.1911 58.5181 43.4413 58.4161 43.6724C58.3248 43.8832 58.1731 44.0622 57.98 44.1867C57.7734 44.3116 57.5356 44.3752 57.2942 44.3702L57.2882 44.3852ZM57.2942 44.0694C57.4167 44.0758 57.5388 44.0516 57.6495 43.9991C57.7603 43.9466 57.8563 43.8674 57.9289 43.7687C58.0914 43.5212 58.1705 43.2282 58.1545 42.9325C58.1711 42.6387 58.0919 42.3474 57.9289 42.1024C57.8528 42.0065 57.7561 41.9291 57.646 41.8759C57.5358 41.8227 57.4151 41.7951 57.2928 41.7951C57.1704 41.7951 57.0497 41.8227 56.9395 41.8759C56.8294 41.9291 56.7327 42.0065 56.6566 42.1024C56.4913 42.3464 56.4109 42.6382 56.428 42.9325C56.4114 43.2287 56.4916 43.5222 56.6566 43.7687C56.7295 43.8679 56.826 43.9473 56.9373 43.9999C57.0487 44.0524 57.1713 44.0763 57.2942 44.0694" fill="#58595B"/>
<path d="M59.4445 44.3128L58.7407 41.5908H59.1107L59.6701 43.7413L60.1844 41.5908H60.5574L61.0416 43.7143L61.6432 41.5908H61.956L61.192 44.3128H60.807L60.3288 42.2164L59.8265 44.3128H59.4445Z" fill="#58595B"/>
<path d="M62.314 44.3128V41.5908H63.8359V41.8826H62.699V42.7548H63.6524V43.0405H62.699V44.0241H63.9171V44.3128H62.314Z" fill="#58595B"/>
<path d="M64.3535 44.3157V41.5937H65.1776C65.2915 41.5798 65.4069 41.5909 65.516 41.6262C65.6251 41.6615 65.7252 41.7202 65.8093 41.7982C65.9243 41.9274 65.9875 42.0945 65.9867 42.2674C65.9853 42.3708 65.9638 42.473 65.9235 42.5682C65.8835 42.6687 65.8231 42.7599 65.7461 42.8359C65.6597 42.921 65.5575 42.9884 65.4453 43.0344L66.3476 44.3097H65.8724L65.1085 43.1637H64.7475V44.3157H64.3535ZM64.7355 42.875H64.8588C64.9626 42.888 65.068 42.8788 65.168 42.8483C65.268 42.8177 65.3605 42.7663 65.4393 42.6975C65.5353 42.5887 65.5888 42.4487 65.5897 42.3035C65.5914 42.2268 65.5727 42.1511 65.5356 42.084C65.4941 42.0168 65.4318 41.965 65.3581 41.9366C65.2371 41.8916 65.1079 41.8732 64.9791 41.8825H64.7355V42.875Z" fill="#58595B"/>
<path d="M67.1203 41.5908H66.7354V44.3128H67.1203V41.5908Z" fill="#58595B"/>
<path d="M67.8242 44.3128V41.5908H68.2002L69.5717 43.6902V41.5908H69.9026V44.3128H69.5236L68.1551 42.2134V44.3128H67.8242Z" fill="#58595B"/>
<path d="M72.6487 44.2587C72.478 44.3099 72.3042 44.35 72.1284 44.379C72.0156 44.3923 71.9021 44.3993 71.7885 44.4C71.5203 44.414 71.2536 44.3525 71.0185 44.2226C70.827 44.1001 70.6779 43.9215 70.5914 43.7113C70.4916 43.4765 70.4414 43.2235 70.4441 42.9684C70.4297 42.5972 70.5469 42.2329 70.7749 41.9397C70.9022 41.8 71.0596 41.6911 71.2352 41.6213C71.4108 41.5515 71.6 41.5226 71.7885 41.5367C72.0786 41.5408 72.3668 41.5833 72.6457 41.663V42.0209C72.4594 41.9514 72.2685 41.8951 72.0742 41.8525C71.9747 41.8369 71.8742 41.8289 71.7735 41.8284C71.6367 41.8172 71.4994 41.8421 71.3754 41.9007C71.2513 41.9593 71.1448 42.0495 71.0667 42.1623C70.9131 42.4036 70.8356 42.6855 70.8441 42.9714C70.843 43.1582 70.8756 43.3436 70.9403 43.5188C70.9964 43.686 71.1011 43.8326 71.2411 43.9399C71.4164 44.0633 71.6288 44.1227 71.8427 44.1083C71.9008 44.1114 71.959 44.1114 72.0171 44.1083C72.1002 44.0968 72.1818 44.0766 72.2607 44.0481V43.1639H72.6427V44.2587H72.6487Z" fill="#58595B"/>
<path d="M75.5479 44.2586V43.8767C75.7019 43.9503 75.8618 44.0106 76.0261 44.0571C76.119 44.0768 76.2138 44.0868 76.3088 44.0872C76.4447 44.0943 76.5782 44.0491 76.6818 43.9609C76.7237 43.9227 76.7573 43.8762 76.7806 43.8245C76.8039 43.7728 76.8163 43.7168 76.8171 43.6601C76.8178 43.5726 76.7927 43.4868 76.7449 43.4135C76.6463 43.2972 76.5244 43.2029 76.387 43.1368L76.1975 43.0315C76.0052 42.934 75.8336 42.8002 75.6922 42.6375C75.606 42.5256 75.5604 42.3877 75.5629 42.2465C75.5626 42.1194 75.5969 41.9946 75.6621 41.8855C75.7299 41.7741 75.8252 41.6819 75.9389 41.6179C76.0741 41.5508 76.2241 41.5187 76.375 41.5246C76.6016 41.5261 76.8266 41.5616 77.0427 41.6299V41.9818C76.906 41.9264 76.7664 41.8782 76.6246 41.8374C76.5494 41.8221 76.4728 41.8141 76.396 41.8134C76.332 41.8084 76.2677 41.8168 76.2071 41.838C76.1465 41.8593 76.091 41.8929 76.0441 41.9367C75.9758 42.0034 75.9359 42.0939 75.9328 42.1893C75.9339 42.2524 75.9527 42.3139 75.987 42.3668C76.0226 42.4301 76.0719 42.4845 76.1314 42.5262C76.2119 42.5815 76.2952 42.6327 76.381 42.6796L76.5765 42.7909C76.7702 42.8874 76.943 43.0213 77.0848 43.1849C77.1703 43.3061 77.2146 43.4516 77.2111 43.5999C77.2114 43.7036 77.1898 43.8062 77.1478 43.901C77.1058 43.9959 77.0444 44.0808 76.9675 44.1504C76.7693 44.3202 76.5119 44.4045 76.2517 44.385C76.1571 44.384 76.0626 44.377 75.9689 44.3639C75.8269 44.3385 75.6863 44.3054 75.5479 44.2647" fill="#58595B"/>
<path d="M79.789 44.1743C79.6922 44.2251 79.5916 44.2684 79.4882 44.3036C79.3985 44.3303 79.3071 44.3504 79.2145 44.3638C79.1148 44.3771 79.0143 44.3842 78.9137 44.3848C78.7254 44.4006 78.5361 44.3717 78.3611 44.3006C78.186 44.2296 78.0302 44.1183 77.9061 43.9758C77.6946 43.6756 77.5811 43.3174 77.5811 42.9501C77.5811 42.5829 77.6946 42.2247 77.9061 41.9245C78.034 41.7857 78.1916 41.6776 78.3671 41.6084C78.5426 41.5391 78.7315 41.5104 78.9197 41.5245C79.209 41.5305 79.4966 41.5699 79.7769 41.6418V42.0057C79.5918 41.9364 79.4018 41.8811 79.2085 41.8403C79.1092 41.8224 79.0086 41.8133 78.9077 41.8132C78.7706 41.8023 78.633 41.8274 78.5085 41.886C78.384 41.9445 78.2769 42.0345 78.1979 42.1471C78.0459 42.3901 77.9694 42.6727 77.9783 42.9592C77.9664 43.2509 78.0556 43.5378 78.231 43.7713C78.3193 43.8737 78.4302 43.9542 78.5549 44.0064C78.6797 44.0586 78.8149 44.0811 78.9498 44.072C79.0355 44.0723 79.121 44.0653 79.2055 44.051C79.2924 44.0335 79.3779 44.0094 79.4611 43.9788C79.5698 43.9385 79.6753 43.8902 79.7769 43.8344V44.1653L79.789 44.1743Z" fill="#58595B"/>
<path d="M80.3486 44.3128V41.5908H80.7366V42.7398H82.03V41.5908H82.4179V44.3128H82.03V43.0285H80.7366V44.3128H80.3486Z" fill="#58595B"/>
<path d="M84.2316 44.3848C83.9939 44.3899 83.7595 44.3285 83.5549 44.2074C83.3609 44.0875 83.207 43.9127 83.1127 43.7051C83.005 43.4693 82.9516 43.2124 82.9563 42.9532C82.9542 42.6997 83.0054 42.4486 83.1067 42.2163C83.1995 42.0054 83.3536 41.8272 83.5489 41.705C83.7558 41.5848 83.9908 41.5215 84.2301 41.5215C84.4694 41.5215 84.7044 41.5848 84.9114 41.705C85.1074 41.8263 85.2617 42.0047 85.3535 42.2163C85.4548 42.4486 85.5061 42.6997 85.5039 42.9532C85.5066 43.2054 85.4564 43.4554 85.3565 43.6871C85.2651 43.8987 85.112 44.0779 84.9174 44.2014C84.7108 44.3262 84.473 44.3898 84.2316 44.3848V44.3848ZM84.2316 44.0841C84.3544 44.0901 84.4768 44.0659 84.588 44.0134C84.6993 43.961 84.7958 43.8819 84.8693 43.7833C85.0294 43.5349 85.1073 43.2423 85.0918 42.9472C85.1085 42.6533 85.0293 42.362 84.8663 42.117C84.7902 42.0212 84.6935 41.9438 84.5834 41.8906C84.4732 41.8374 84.3525 41.8097 84.2301 41.8097C84.1078 41.8097 83.987 41.8374 83.8769 41.8906C83.7667 41.9438 83.67 42.0212 83.594 42.117C83.4444 42.3692 83.3655 42.657 83.3655 42.9502C83.3655 43.2433 83.4444 43.5311 83.594 43.7833C83.6669 43.8825 83.7633 43.962 83.8747 44.0145C83.986 44.067 84.1087 44.0909 84.2316 44.0841Z" fill="#58595B"/>
<path d="M87.1579 44.3848C86.9211 44.3903 86.6876 44.3288 86.4842 44.2074C86.2902 44.0875 86.1363 43.9127 86.0421 43.7051C85.9367 43.4684 85.8823 43.2122 85.8823 42.9531C85.8823 42.6941 85.9367 42.4379 86.0421 42.2012C86.1329 41.989 86.2874 41.8104 86.4842 41.6899C86.6906 41.5697 86.9251 41.5063 87.1639 41.5063C87.4028 41.5063 87.6373 41.5697 87.8437 41.6899C88.039 41.8121 88.193 41.9903 88.2858 42.2012C88.3889 42.433 88.4402 42.6844 88.4362 42.9381C88.44 43.1904 88.3898 43.4407 88.2888 43.672C88.1974 43.8836 88.0444 44.0628 87.8497 44.1863C87.6432 44.3114 87.4053 44.3751 87.1639 44.3698L87.1579 44.3848ZM87.1639 44.069C87.2864 44.0756 87.4086 44.0516 87.5194 43.9991C87.6302 43.9466 87.7262 43.8672 87.7986 43.7682C87.9625 43.5214 88.0417 43.2279 88.0241 42.9321C88.0421 42.6381 87.9629 42.3464 87.7986 42.1019C87.7225 42.0061 87.6258 41.9287 87.5157 41.8755C87.4055 41.8223 87.2848 41.7947 87.1624 41.7947C87.0401 41.7947 86.9193 41.8223 86.8092 41.8755C86.699 41.9287 86.6023 42.0061 86.5263 42.1019C86.3632 42.3469 86.2841 42.6382 86.3007 42.9321C86.2847 43.2277 86.3638 43.5207 86.5263 43.7682C86.5994 43.8673 86.6959 43.9466 86.8072 43.9991C86.9185 44.0516 87.0411 44.0756 87.1639 44.069Z" fill="#58595B"/>
<path d="M88.9717 44.3128V41.5908H89.3567V44.0241H90.5658V44.3128H88.9717Z" fill="#58595B"/>
<path d="M90.8154 44.2588V43.8768C90.9694 43.9505 91.1294 44.0108 91.2937 44.0573C91.3876 44.0769 91.4834 44.087 91.5794 44.0874C91.7144 44.0943 91.8468 44.0491 91.9493 43.9611C91.9913 43.9228 92.0249 43.8764 92.0482 43.8247C92.0715 43.773 92.0839 43.717 92.0847 43.6603C92.0854 43.5728 92.0603 43.487 92.0125 43.4136C91.9133 43.2968 91.7902 43.2024 91.6516 43.1369L91.4651 43.0317C91.2728 42.9342 91.1012 42.8004 90.9598 42.6376C90.875 42.525 90.8296 42.3876 90.8305 42.2466C90.8299 42.1191 90.8653 41.994 90.9327 41.8857C90.9997 41.7736 91.0952 41.6813 91.2094 41.618C91.3445 41.5502 91.4946 41.5181 91.6456 41.5248C91.8711 41.5265 92.0952 41.562 92.3103 41.6301V41.982C92.1737 41.9261 92.0341 41.8779 91.8922 41.8376C91.8169 41.8223 91.7404 41.8142 91.6636 41.8135C91.5996 41.8086 91.5353 41.817 91.4747 41.8382C91.4141 41.8594 91.3586 41.893 91.3117 41.9369C91.2444 42.0042 91.2047 42.0944 91.2004 42.1895C91.1993 42.2529 91.2183 42.315 91.2546 42.367C91.2901 42.4302 91.3395 42.4847 91.3989 42.5264C91.4591 42.5685 91.5433 42.6196 91.6486 42.6798L91.8441 42.791C92.0381 42.8886 92.2116 43.0223 92.3554 43.1851C92.4385 43.3073 92.4816 43.4523 92.4787 43.6001C92.4782 43.7034 92.4566 43.8055 92.4152 43.9002C92.3739 43.9948 92.3136 44.08 92.2381 44.1505C92.0382 44.3194 91.7803 44.4036 91.5192 44.3851C91.4256 44.3844 91.3322 44.3773 91.2395 44.3641C91.0964 44.3391 90.9548 44.306 90.8154 44.2648" fill="#58595B"/>
<path d="M94.8488 44.3128V41.8826H93.8833V41.5908H96.2023V41.8826H95.2338V44.3128H94.8488Z" fill="#58595B"/>
<path d="M97.6969 44.3851C97.4601 44.3902 97.2266 44.3287 97.0231 44.2076C96.8292 44.0878 96.6753 43.9129 96.581 43.7053C96.4733 43.4695 96.4198 43.2126 96.4246 42.9534C96.4225 42.7002 96.4727 42.4494 96.572 42.2165C96.6659 42.0054 96.8209 41.8273 97.0171 41.7052C97.2217 41.5808 97.4575 41.5172 97.6969 41.5217C97.9372 41.5176 98.1738 41.5812 98.3796 41.7052C98.5741 41.8276 98.7271 42.0058 98.8188 42.2165C98.9219 42.4483 98.9732 42.6997 98.9691 42.9534C98.9729 43.2057 98.9227 43.456 98.8218 43.6873C98.7303 43.8989 98.5773 44.0781 98.3826 44.2016C98.1762 44.3267 97.9383 44.3904 97.6969 44.3851V44.3851ZM97.6969 44.0843C97.8197 44.0906 97.9422 44.0665 98.0535 44.014C98.1647 43.9615 98.2613 43.8823 98.3345 43.7835C98.4971 43.536 98.5761 43.243 98.5601 42.9474C98.5772 42.6531 98.4969 42.3613 98.3315 42.1172C98.2558 42.0215 98.1593 41.9441 98.0494 41.8909C97.9395 41.8376 97.819 41.81 97.6969 41.81C97.5748 41.81 97.4542 41.8376 97.3443 41.8909C97.2344 41.9441 97.138 42.0215 97.0622 42.1172C96.8969 42.3613 96.8166 42.6531 96.8337 42.9474C96.8182 43.2425 96.8961 43.5351 97.0562 43.7835C97.1303 43.8822 97.2274 43.9612 97.3391 44.0136C97.4508 44.0661 97.5736 44.0903 97.6969 44.0843Z" fill="#58595B"/>
<path d="M101.351 44.3128V41.8826H100.386V41.5908H102.702V41.8826H101.736V44.3128H101.351Z" fill="#58595B"/>
<path d="M103.087 44.3128V41.5908H103.472V42.7398H104.768V41.5908H105.156V44.3128H104.768V43.0285H103.472V44.3128H103.087Z" fill="#58595B"/>
<path d="M105.857 44.3128V41.5908H107.382V41.8826H106.242V42.7548H107.198V43.0405H106.242V44.0241H107.46V44.3128H105.857Z" fill="#58595B"/>
<path d="M109.087 44.3128V41.5908H109.469L110.838 43.6902V41.5908H111.169V44.3128H110.79L109.424 42.2134V44.3128H109.087Z" fill="#58595B"/>
<path d="M111.873 44.3128V41.5908H113.397V41.8826H112.261V42.7548H113.214V43.0405H112.261V44.0241H113.479V44.3128H111.873Z" fill="#58595B"/>
<path d="M113.596 44.3128L114.501 42.9443L113.641 41.5908H114.098L114.748 42.6195L115.439 41.5908H115.803L114.931 42.9082L115.827 44.3128H115.37L114.678 43.236L113.966 44.3128H113.596Z" fill="#58595B"/>
<path d="M116.92 44.3128V41.8826H115.954V41.5908H118.273V41.8826H117.308V44.3128H116.92Z" fill="#58595B"/>
<path d="M119.849 44.3128V41.5908H120.234V44.0241H121.443V44.3128H119.849Z" fill="#58595B"/>
<path d="M121.858 44.3128V41.5908H123.383V41.8826H122.243V42.7548H123.199V43.0375H122.243V44.0241H123.461V44.3128H121.858Z" fill="#58595B"/>
<path d="M124.643 44.3128L123.615 41.5908H124L124.845 43.8195L125.66 41.5908H125.997L125.007 44.3128H124.643Z" fill="#58595B"/>
<path d="M126.364 44.3128V41.5908H127.886V41.8826H126.749V42.7548H127.705V43.0375H126.749V44.0241H127.967V44.3128H126.364Z" fill="#58595B"/>
<path d="M128.406 44.3128V41.5908H128.794V44.0241H130V44.3128H128.406Z" fill="#58595B"/>
<path fill-rule="evenodd" clip-rule="evenodd" d="M37.6536 36.4055C37.6539 37.4307 37.5744 38.4544 37.416 39.4673C37.1616 41.1225 36.7009 42.7392 36.0444 44.2797L35.9181 44.5805L35.864 44.2647C35.6031 42.6009 34.9803 41.0147 34.0397 39.6178C33.0991 38.2209 31.8635 37.0474 30.42 36.1799C29.7914 35.7829 28.4499 35.1182 28.4499 35.1182L6.96875 24.3535C6.27414 23.9613 5.60141 23.5316 4.95357 23.0662C4.53495 22.7669 4.1333 22.4446 3.75048 22.1007C3.47076 21.836 3.20608 21.5623 2.95644 21.2766C1.12347 19.1701 0.0803363 16.4915 0.00585938 13.7001C0.00585938 13.5949 0.00585938 13.4896 0.00585938 13.3994C0.00585938 13.3091 0.00585938 13.1407 0.00585938 13.0084C0.00585938 12.9242 0.00585938 12.8399 0.00585938 12.7527C0.0367178 12.0902 0.127315 11.4319 0.276553 10.7857C0.384772 9.94071 0.552622 9.10449 0.778845 8.28323C1.58673 5.33116 3.06708 2.6062 5.10396 0.321777V0.321777C4.91346 1.17277 4.81863 2.04238 4.82123 2.91444C4.82123 3.23626 4.82123 3.55207 4.85431 3.86788C5.00338 5.73108 5.58984 7.53286 6.56608 9.12682C7.54231 10.7208 8.88078 12.062 10.4727 13.0415L17.4808 16.5515L17.7996 16.7109L30.7328 23.1895C33.0441 24.3727 34.9106 26.2719 36.0535 28.6034C36.0603 28.6181 36.0664 28.6332 36.0715 28.6486C37.1106 31.1045 37.6436 33.7448 37.6385 36.4115L37.6536 36.4055Z" fill="url(#paint2_linear_947_53)"/>
<path fill-rule="evenodd" clip-rule="evenodd" d="M9.31184 40.0749C9.31266 39.1741 9.01412 38.2985 8.46315 37.5858C7.91218 36.8732 7.14002 36.3638 6.26802 36.1378L6.04846 36.0896C5.17926 35.8641 4.40933 35.3569 3.85912 34.6472C3.30891 33.9376 3.00947 33.0655 3.00764 32.1676C3.00711 31.7901 3.05976 31.4145 3.16405 31.0517C3.17431 31.0078 3.18737 30.9646 3.20315 30.9224C2.30806 31.5915 1.56435 32.442 1.02069 33.4184C0.477019 34.3947 0.14565 35.4749 0.048264 36.5881C-0.0491222 37.7014 0.0896678 38.8227 0.455555 39.8786C0.821442 40.9346 1.40618 41.9013 2.1715 42.7157C2.31434 42.8715 2.46491 43.0201 2.62266 43.1608C2.65522 43.1883 2.68634 43.2174 2.71589 43.248C3.31367 43.7244 4.03369 44.0226 4.79326 44.1082C5.55284 44.1938 6.32116 44.0634 7.00998 43.7321C7.69881 43.4007 8.28019 42.8817 8.68736 42.2348C9.09453 41.5879 9.31098 40.8393 9.31184 40.0749V40.0749Z" fill="url(#paint3_linear_947_53)"/>
<path fill-rule="evenodd" clip-rule="evenodd" d="M9.30288 39.8433C9.26154 39.1166 9.0256 38.4143 8.61975 37.81C8.2139 37.2058 7.65306 36.7217 6.99596 36.4085C6.86674 36.3479 6.73419 36.2947 6.59894 36.2491C6.49076 36.2077 6.38029 36.1726 6.26809 36.1438L6.04852 36.0957C5.17833 35.87 4.40766 35.3618 3.85735 34.6509C3.30704 33.94 3.0082 33.0666 3.00771 32.1676C3.00718 31.7902 3.05983 31.4145 3.16411 31.0518C2.29651 32.5301 1.93078 34.2495 2.12162 35.953C2.31246 37.6564 3.04961 39.2524 4.22283 40.502C4.36419 40.6584 4.5236 40.8028 4.67399 40.9502C4.70827 40.9767 4.74045 41.0059 4.77024 41.0374C4.94628 41.1782 5.13451 41.303 5.33268 41.4104C5.52914 41.5196 5.73823 41.6045 5.95528 41.663V41.663C6.18784 41.7249 6.42746 41.7562 6.66811 41.7563H6.76737C7.1388 41.7436 7.50382 41.6559 7.84036 41.4982C8.17691 41.3405 8.47798 41.1162 8.7254 40.8389C8.98703 40.5523 9.18398 40.2128 9.30288 39.8433V39.8433Z" fill="url(#paint4_linear_947_53)"/>
<path fill-rule="evenodd" clip-rule="evenodd" d="M37.5633 6.8548C37.5642 8.08946 37.2766 9.30723 36.7236 10.4111C36.1706 11.515 35.3675 12.4745 34.3781 13.2131C34.5478 12.6867 34.608 12.1312 34.5551 11.5806C34.5022 11.0301 34.3374 10.4962 34.0706 10.0117C33.8038 9.52721 33.4409 9.10237 33.0039 8.76328C32.567 8.42419 32.0654 8.178 31.5298 8.03984L31.3103 7.99172C30.7247 7.83979 30.1804 7.55891 29.7173 7.16962C29.2542 6.78033 28.8839 6.29248 28.6335 5.74171C28.3832 5.19095 28.259 4.5912 28.2702 3.9863C28.2814 3.3814 28.4276 2.78666 28.6982 2.24553C28.9688 1.7044 29.3568 1.23058 29.834 0.858688C30.3112 0.486798 30.8655 0.22624 31.4563 0.0960716C32.0472 -0.034097 32.6596 -0.0305898 33.2489 0.106334C33.8382 0.243257 34.3895 0.510135 34.8624 0.887463L34.9586 0.97469C35.115 1.11906 35.2594 1.27547 35.4068 1.41984C36.7934 2.88957 37.565 4.83421 37.5633 6.8548V6.8548Z" fill="url(#paint5_linear_947_53)"/>
<path fill-rule="evenodd" clip-rule="evenodd" d="M35.9332 44.5745L35.879 44.2587C35.6181 42.5949 34.9954 41.0087 34.0547 39.6118C33.1141 38.2149 31.8785 37.0413 30.435 36.1739C29.8064 35.7769 28.465 35.1122 28.465 35.1122L6.96875 24.3535C6.27414 23.9613 5.60141 23.5316 4.95357 23.0662C4.53495 22.7669 4.1333 22.4446 3.75048 22.1007C3.47076 21.836 3.20608 21.5623 2.95644 21.2766C1.12347 19.1701 0.0803363 16.4915 0.00585938 13.7001C0.00585938 13.5949 0.00585938 13.4896 0.00585938 13.3994C0.00585938 13.3091 0.00585938 13.1407 0.00585938 13.0084C0.00585938 12.9242 0.00585938 12.8399 0.00585938 12.7527C0.0367178 12.0902 0.127315 11.4319 0.276553 10.7857C0.384772 9.94071 0.552622 9.10449 0.778845 8.28323C1.58673 5.33116 3.06708 2.6062 5.10396 0.321777C5.01072 0.514272 0.120153 10.7556 6.46044 17.0297C7.24273 17.8557 8.14396 18.5602 9.13431 19.1201L29.4094 29.3764C29.4094 29.3764 36.6941 32.73 35.9332 44.5745Z" fill="url(#paint6_linear_947_53)"/>
<path fill-rule="evenodd" clip-rule="evenodd" d="M28.2759 4.31297C28.3208 5.03841 28.5601 5.73839 28.9687 6.33955C29.3772 6.9407 29.9399 7.42088 30.5978 7.72975C30.7258 7.79185 30.8573 7.84609 30.9919 7.89217C31.1 7.93356 31.2105 7.96871 31.3227 7.99744L31.5423 8.04557C32.4125 8.27293 33.1826 8.78304 33.7314 9.49571C34.2802 10.2084 34.5766 11.0832 34.5741 11.9827C34.5747 12.3604 34.521 12.7362 34.4147 13.0985C35.2845 11.6233 35.6535 9.90618 35.4664 8.20385C35.2794 6.50151 34.5464 4.90545 33.377 3.65428C33.2356 3.49788 33.0762 3.35351 32.9288 3.20613C32.8947 3.18055 32.8625 3.1524 32.8326 3.12192C32.6579 2.97989 32.4706 2.85405 32.2732 2.74595C32.0755 2.63621 31.8655 2.55038 31.6475 2.49029V2.49029C31.4148 2.42908 31.1754 2.39675 30.9347 2.39404H30.8204C30.4497 2.40486 30.0849 2.49034 29.748 2.64538C29.411 2.80042 29.1088 3.02183 28.8594 3.29636C28.5977 3.59197 28.3991 3.93791 28.2759 4.31297V4.31297Z" fill="url(#paint7_linear_947_53)"/>
</g>
<defs>
<linearGradient id="paint0_linear_947_53" x1="88.665" y1="29.945" x2="102.723" y2="29.945" gradientUnits="userSpaceOnUse">
<stop stop-color="#AD2F92"/>
<stop offset="1" stop-color="#7B2A8B"/>
</linearGradient>
<linearGradient id="paint1_linear_947_53" x1="104.013" y1="29.9451" x2="118.074" y2="29.9451" gradientUnits="userSpaceOnUse">
<stop stop-color="#AD2F92"/>
<stop offset="1" stop-color="#7B2A8B"/>
</linearGradient>
<linearGradient id="paint2_linear_947_53" x1="-0.00015608" y1="22.4406" x2="37.6536" y2="22.4406" gradientUnits="userSpaceOnUse">
<stop stop-color="#7B2A8B"/>
<stop offset="1" stop-color="#AD2F92"/>
</linearGradient>
<linearGradient id="paint3_linear_947_53" x1="0.0179643" y1="37.5273" x2="9.31184" y2="37.5273" gradientUnits="userSpaceOnUse">
<stop stop-color="#7B2A8B"/>
<stop offset="1" stop-color="#AD2F92"/>
</linearGradient>
<linearGradient id="paint4_linear_947_53" x1="2.07231" y1="36.4055" x2="9.30288" y2="36.4055" gradientUnits="userSpaceOnUse">
<stop stop-color="#AD2F92"/>
<stop offset="1" stop-color="#7B2A8B"/>
</linearGradient>
<linearGradient id="paint5_linear_947_53" x1="28.2695" y1="6.60816" x2="37.5633" y2="6.60816" gradientUnits="userSpaceOnUse">
<stop stop-color="#AD2F92"/>
<stop offset="1" stop-color="#7B2A8B"/>
</linearGradient>
<linearGradient id="paint6_linear_947_53" x1="-0.00015608" y1="22.4406" x2="35.9753" y2="22.4406" gradientUnits="userSpaceOnUse">
<stop stop-color="#AD2F92"/>
<stop offset="1" stop-color="#7B2A8B"/>
</linearGradient>
<linearGradient id="paint7_linear_947_53" x1="28.2759" y1="7.73877" x2="35.5185" y2="7.73877" gradientUnits="userSpaceOnUse">
<stop stop-color="#7B2A8B"/>
<stop offset="1" stop-color="#AD2F92"/>
</linearGradient>
<clipPath id="clip0_947_53">
<rect width="130" height="44.5745" fill="white"/>
</clipPath>
</defs>
</svg>
