<svg width="28" height="28" viewBox="0 0 28 28" fill="none" xmlns="http://www.w3.org/2000/svg">
<path d="M17.78 25.9817H17.6283C12.4483 25.9817 9.95163 23.94 9.51996 19.3667C9.47329 18.8883 9.82329 18.4567 10.3133 18.41C10.78 18.3633 11.2233 18.725 11.27 19.2033C11.6083 22.8667 13.335 24.2317 17.64 24.2317H17.7916C22.54 24.2317 24.22 22.5517 24.22 17.8033V10.1967C24.22 5.44834 22.54 3.76834 17.7916 3.76834H17.64C13.3116 3.76834 11.585 5.15667 11.27 8.89001C11.2116 9.36834 10.8033 9.73001 10.3133 9.68334C10.1983 9.67436 10.0862 9.64276 9.98349 9.59036C9.88074 9.53797 9.78935 9.4658 9.71456 9.378C9.63977 9.2902 9.58305 9.1885 9.54766 9.07874C9.51226 8.96897 9.49888 8.85329 9.50829 8.73834C9.90496 4.09501 12.4133 2.01834 17.6283 2.01834H17.78C23.5083 2.01834 25.9583 4.46834 25.9583 10.1967V17.8033C25.9583 23.5317 23.5083 25.9817 17.78 25.9817Z" fill="#3A3A3A"/>
<path d="M17.5001 14.875H4.22339C3.74506 14.875 3.34839 14.4783 3.34839 14C3.34839 13.5217 3.74506 13.125 4.22339 13.125H17.5001C17.9784 13.125 18.3751 13.5217 18.3751 14C18.3751 14.4783 17.9784 14.875 17.5001 14.875Z" fill="#3A3A3A"/>
<path d="M6.82509 18.7833C6.60342 18.7833 6.38175 18.7017 6.20675 18.5267L2.29842 14.6183C2.13569 14.4537 2.04443 14.2315 2.04443 14C2.04443 13.7685 2.13569 13.5463 2.29842 13.3817L6.20675 9.47334C6.54509 9.13501 7.10509 9.13501 7.44342 9.47334C7.78175 9.81167 7.78175 10.3717 7.44342 10.71L4.15342 14L7.44342 17.29C7.78175 17.6283 7.78175 18.1883 7.44342 18.5267C7.28009 18.7017 7.04675 18.7833 6.82509 18.7833Z" fill="#3A3A3A"/>
</svg>
