<svg width="30" height="30" viewBox="0 0 30 30" fill="none" xmlns="http://www.w3.org/2000/svg">
<path d="M15 28.5125C14.1375 28.5125 13.325 28.075 12.75 27.3125L10.875 24.8125C10.8029 24.7442 10.711 24.7005 10.6125 24.6875H10C4.7875 24.6875 1.5625 23.275 1.5625 16.25V10C1.5625 4.475 4.475 1.5625 10 1.5625H17.5C18.0125 1.5625 18.4375 1.9875 18.4375 2.5C18.4375 3.0125 18.0125 3.4375 17.5 3.4375H10C5.525 3.4375 3.4375 5.525 3.4375 10V16.25C3.4375 21.9 5.375 22.8125 10 22.8125H10.625C11.2625 22.8125 11.9875 23.175 12.375 23.6875L14.25 26.1875C14.6875 26.7625 15.3125 26.7625 15.75 26.1875L17.625 23.6875C18.0375 23.1375 18.6875 22.8125 19.375 22.8125H20C24.475 22.8125 26.5625 20.725 26.5625 16.25V12.5C26.5625 11.9875 26.9875 11.5625 27.5 11.5625C28.0125 11.5625 28.4375 11.9875 28.4375 12.5V16.25C28.4375 21.775 25.525 24.6875 20 24.6875H19.375C19.275 24.6875 19.1875 24.7375 19.125 24.8125L17.25 27.3125C16.675 28.075 15.8625 28.5125 15 28.5125V28.5125Z" fill="#3A3A3A"/>
<path d="M15 15C14.3 15 13.75 14.4375 13.75 13.75C13.75 13.0625 14.3125 12.5 15 12.5C15.6875 12.5 16.25 13.0625 16.25 13.75C16.25 14.4375 15.7 15 15 15ZM20 15C19.3 15 18.75 14.4375 18.75 13.75C18.75 13.0625 19.3125 12.5 20 12.5C20.6875 12.5 21.25 13.0625 21.25 13.75C21.25 14.4375 20.7 15 20 15ZM10 15C9.3 15 8.75 14.4375 8.75 13.75C8.75 13.0625 9.3125 12.5 10 12.5C10.6875 12.5 11.25 13.0625 11.25 13.75C11.25 14.4375 10.7 15 10 15ZM24.375 9.6875C22.1375 9.6875 20.3125 7.8625 20.3125 5.625C20.3125 3.3875 22.1375 1.5625 24.375 1.5625C26.6125 1.5625 28.4375 3.3875 28.4375 5.625C28.4375 7.8625 26.6125 9.6875 24.375 9.6875ZM24.375 3.4375C23.175 3.4375 22.1875 4.425 22.1875 5.625C22.1875 6.825 23.175 7.8125 24.375 7.8125C25.575 7.8125 26.5625 6.825 26.5625 5.625C26.5625 4.425 25.575 3.4375 24.375 3.4375Z" fill="#3A3A3A"/>
</svg>
