<svg width="19" height="36" viewBox="0 0 19 36" fill="none" xmlns="http://www.w3.org/2000/svg">
<path d="M0.0078125 0H18.2345V13.9688C18.2345 14.6562 18.0687 15.2887 17.7371 15.8663C17.4042 16.445 16.9371 16.9062 16.3359 17.25L9.78568 21.1406L11.1622 25.5H17.4751L12.3013 29.1094L14.2949 35.4375L9.12116 31.5L3.94744 35.4375L5.94098 29.1094L0.767258 25.5H7.08015L8.45665 21.1406L1.85896 17.2969C1.25773 16.9531 0.798902 16.4919 0.482466 15.9131C0.16603 15.3356 0.0078125 14.6875 0.0078125 13.9688V0ZM2.85573 2.8125V13.9688C2.85573 14.1562 2.8956 14.3281 2.97535 14.4844C3.05382 14.6406 3.17217 14.7656 3.33039 14.8594L7.6972 17.3906V2.8125H2.85573ZM15.3866 2.8125H10.5451V17.3906L14.9119 14.8594C15.0702 14.7656 15.1891 14.6406 15.2689 14.4844C15.3474 14.3281 15.3866 14.1562 15.3866 13.9688V2.8125Z" fill="white"/>
</svg>
