<svg width="30" height="30" viewBox="0 0 30 30" fill="none" xmlns="http://www.w3.org/2000/svg">
<path d="M23.75 16.7H2.5C1.9875 16.7 1.5625 16.275 1.5625 15.7625C1.5625 15.25 1.9875 14.825 2.5 14.825H23.75C24.2625 14.825 24.6875 15.25 24.6875 15.7625C24.6875 16.275 24.2625 16.7 23.75 16.7Z" fill="#3A3A3A"/>
<path d="M19.025 27.1875H7.225C2.9375 27.1875 1.5625 25.825 1.5625 21.5875V12.85C1.5625 9.4875 2.325 7.5 6.2 7.275C6.525 7.2625 6.8625 7.25 7.225 7.25H19.025C23.3125 7.25 24.6875 8.6125 24.6875 12.85V21.7875C24.6375 25.875 23.2625 27.1875 19.025 27.1875V27.1875ZM7.225 9.125C6.8875 9.125 6.575 9.1375 6.2875 9.15C4.05 9.2875 3.4375 9.7625 3.4375 12.85V21.5875C3.4375 24.7875 3.9625 25.3125 7.225 25.3125H19.025C22.25 25.3125 22.775 24.8125 22.8125 21.775V12.85C22.8125 9.65 22.2875 9.125 19.025 9.125H7.225V9.125Z" fill="#3A3A3A"/>
<path d="M23.7501 22.725C23.5126 22.725 23.2751 22.6375 23.1126 22.475C23.0183 22.3869 22.9431 22.2805 22.8915 22.1623C22.8399 22.0441 22.813 21.9165 22.8126 21.7875V12.85C22.8126 9.65 22.2876 9.125 19.0251 9.125H7.2251C6.8876 9.125 6.5751 9.1375 6.2876 9.15C6.0376 9.1625 5.7876 9.0625 5.6001 8.8875C5.50754 8.79878 5.43425 8.69195 5.38479 8.57367C5.33533 8.45539 5.31075 8.32819 5.3126 8.2C5.3626 4.125 6.7376 2.8125 10.9751 2.8125H22.7751C27.0626 2.8125 28.4376 4.175 28.4376 8.4125V17.15C28.4376 20.5125 27.6751 22.5 23.8001 22.725H23.7501ZM7.2251 7.25H19.0251C23.3126 7.25 24.6876 8.6125 24.6876 12.85V20.75C26.1376 20.4875 26.5626 19.7375 26.5626 17.15V8.4125C26.5626 5.2125 26.0376 4.6875 22.7751 4.6875H10.9751C8.1251 4.6875 7.3876 5.075 7.2251 7.25V7.25ZM8.7026 23.1988H6.5526C6.0401 23.1988 5.6151 22.7738 5.6151 22.2613C5.6151 21.7488 6.0401 21.3238 6.5526 21.3238H8.7026C8.95124 21.3238 9.18969 21.4225 9.36551 21.5983C9.54132 21.7742 9.6401 22.0126 9.6401 22.2613C9.6401 22.5099 9.54132 22.7483 9.36551 22.9242C9.18969 23.1 8.95124 23.1988 8.7026 23.1988ZM15.6876 23.1988H11.3876C10.8751 23.1988 10.4501 22.7738 10.4501 22.2613C10.4501 21.7488 10.8751 21.3238 11.3876 21.3238H15.6876C15.9362 21.3238 16.1747 21.4225 16.3505 21.5983C16.5263 21.7742 16.6251 22.0126 16.6251 22.2613C16.6251 22.5099 16.5263 22.7483 16.3505 22.9242C16.1747 23.1 15.9362 23.1988 15.6876 23.1988V23.1988Z" fill="#3A3A3A"/>
</svg>
