<svg width="30" height="30" viewBox="0 0 30 30" fill="none" xmlns="http://www.w3.org/2000/svg">
<path d="M6.50253 12.1875C4.79378 12.1875 3.33817 11.5938 2.13571 10.4062C0.933259 9.21875 0.332031 7.78125 0.332031 6.09375C0.332031 4.40625 0.933259 2.96875 2.13571 1.78125C3.33817 0.59375 4.79378 0 6.50253 0C8.21128 0 9.66689 0.59375 10.8693 1.78125C12.0718 2.96875 12.673 4.40625 12.673 6.09375C12.673 7.78125 12.0718 9.21875 10.8693 10.4062C9.66689 11.5938 8.21128 12.1875 6.50253 12.1875ZM6.50253 9.375C7.42019 9.375 8.20369 9.055 8.85301 8.415C9.50107 7.77375 9.8251 7 9.8251 6.09375C9.8251 5.1875 9.50107 4.41375 8.85301 3.7725C8.20369 3.1325 7.42019 2.8125 6.50253 2.8125C5.58487 2.8125 4.802 3.1325 4.15394 3.7725C3.50462 4.41375 3.17995 5.1875 3.17995 6.09375C3.17995 7 3.50462 7.77375 4.15394 8.415C4.802 9.055 5.58487 9.375 6.50253 9.375ZM23.5901 29.0625C21.8813 29.0625 20.4257 28.4687 19.2232 27.2812C18.0208 26.0937 17.4196 24.6562 17.4196 22.9688C17.4196 21.2812 18.0208 19.8438 19.2232 18.6562C20.4257 17.4688 21.8813 16.875 23.5901 16.875C25.2988 16.875 26.7544 17.4688 27.9569 18.6562C29.1593 19.8438 29.7606 21.2812 29.7606 22.9688C29.7606 24.6562 29.1593 26.0937 27.9569 27.2812C26.7544 28.4687 25.2988 29.0625 23.5901 29.0625ZM23.5901 26.25C24.5077 26.25 25.2912 25.93 25.9405 25.29C26.5886 24.6488 26.9126 23.875 26.9126 22.9688C26.9126 22.0625 26.5886 21.2887 25.9405 20.6475C25.2912 20.0075 24.5077 19.6875 23.5901 19.6875C22.6724 19.6875 21.8889 20.0075 21.2396 20.6475C20.5915 21.2887 20.2675 22.0625 20.2675 22.9688C20.2675 23.875 20.5915 24.6488 21.2396 25.29C21.8889 25.93 22.6724 26.25 23.5901 26.25ZM2.51544 28.875L0.521893 26.9062L27.5772 0.1875L29.5707 2.15625L2.51544 28.875Z" fill="white"/>
</svg>
