<svg width="30" height="30" viewBox="0 0 30 30" fill="none" xmlns="http://www.w3.org/2000/svg">
<path d="M24.875 28.4375H5.125C2.725 28.4375 1.5625 27.2125 1.5625 24.7125V19.6625C1.5625 17.15 2.725 15.9375 5.125 15.9375H24.875C27.275 15.9375 28.4375 17.1625 28.4375 19.6625V24.7125C28.4375 27.2125 27.275 28.4375 24.875 28.4375ZM5.125 17.8125C3.8625 17.8125 3.4375 18.075 3.4375 19.6625V24.7125C3.4375 26.3 3.8625 26.5625 5.125 26.5625H24.875C26.1375 26.5625 26.5625 26.3 26.5625 24.7125V19.6625C26.5625 18.075 26.1375 17.8125 24.875 17.8125H5.125V17.8125ZM24.875 14.0625H5.125C2.725 14.0625 1.5625 12.8375 1.5625 10.3375V5.2875C1.5625 2.775 2.725 1.5625 5.125 1.5625H24.875C27.275 1.5625 28.4375 2.7875 28.4375 5.2875V10.3375C28.4375 12.8375 27.275 14.0625 24.875 14.0625ZM5.125 3.4375C3.8625 3.4375 3.4375 3.7 3.4375 5.2875V10.3375C3.4375 11.925 3.8625 12.1875 5.125 12.1875H24.875C26.1375 12.1875 26.5625 11.925 26.5625 10.3375V5.2875C26.5625 3.7 26.1375 3.4375 24.875 3.4375H5.125V3.4375Z" fill="#3A3A3A"/>
</svg>
