<svg width="100" height="60" viewBox="0 0 100 60" fill="none" xmlns="http://www.w3.org/2000/svg">
<mask id="mask0_3195_504" style="mask-type:luminance" maskUnits="userSpaceOnUse" x="0" y="0" width="100" height="60">
<path d="M42.8032 49.7719L33.8922 58.6663C33.7316 58.8269 33.5408 58.9543 33.3307 59.0412C33.1207 59.1281 32.8956 59.1729 32.6682 59.1729C32.4408 59.1729 32.2157 59.1281 32.0057 59.0412C31.7956 58.9543 31.6048 58.8269 31.4442 58.6663L22.5332 49.7719H8.76955C7.61843 49.7733 6.47832 49.5483 5.41441 49.1096C4.3505 48.6708 3.38367 48.0271 2.5692 47.2152C1.75473 46.4032 1.1086 45.439 0.667752 44.3776C0.226907 43.3162 -8.88174e-07 42.1785 0 41.0295V8.74241C0.00288331 6.42279 0.928086 4.19916 2.57238 2.55995C4.21668 0.92075 6.4456 -1.78533e-06 8.76955 0H91.1772C93.4898 0.0171823 95.702 0.945507 97.3322 2.58286C98.9624 4.2202 99.8787 6.43403 99.8815 8.74241V41.0295C99.8815 43.3388 98.9662 45.5542 97.3354 47.1922C95.7046 48.8302 93.4907 49.7576 91.1772 49.7719H42.8032Z" fill="white"/>
</mask>
<g mask="url(#mask0_3195_504)">
<path d="M42.8032 49.7719L33.8922 58.6663C33.7316 58.8269 33.5408 58.9543 33.3307 59.0412C33.1207 59.1281 32.8956 59.1729 32.6682 59.1729C32.4408 59.1729 32.2157 59.1281 32.0057 59.0412C31.7956 58.9543 31.6048 58.8269 31.4442 58.6663L22.5332 49.7719H8.76955C7.61843 49.7733 6.47832 49.5483 5.41441 49.1096C4.3505 48.6708 3.38367 48.0271 2.5692 47.2152C1.75473 46.4032 1.1086 45.439 0.667752 44.3776C0.226907 43.3162 -8.88174e-07 42.1785 0 41.0295V8.74241C0.00288331 6.42279 0.928086 4.19916 2.57238 2.55995C4.21668 0.92075 6.4456 -1.78533e-06 8.76955 0H91.1772C93.4898 0.0171823 95.702 0.945507 97.3322 2.58286C98.9624 4.2202 99.8787 6.43403 99.8815 8.74241V41.0295C99.8815 43.3388 98.9662 45.5542 97.3354 47.1922C95.7046 48.8302 93.4907 49.7576 91.1772 49.7719H42.8032Z" fill="url(#paint0_linear_3195_504)"/>
<path d="M34.469 11.6963H14.2534C13.0455 11.6963 12.0664 12.6736 12.0664 13.8792C12.0664 15.0847 13.0455 16.0621 14.2534 16.0621H34.469C35.6768 16.0621 36.656 15.0847 36.656 13.8792C36.656 12.6736 35.6768 11.6963 34.469 11.6963Z" fill="white"/>
<path d="M52.0073 11.6963H45.392C44.1842 11.6963 43.2051 12.6736 43.2051 13.8792C43.2051 15.0847 44.1842 16.0621 45.392 16.0621H52.0073C53.2151 16.0621 54.1942 15.0847 54.1942 13.8792C54.1942 12.6736 53.2151 11.6963 52.0073 11.6963Z" fill="white"/>
<path d="M86.2594 22.0459H14.2534C13.0455 22.0459 12.0664 23.0232 12.0664 24.2288C12.0664 25.4343 13.0455 26.4117 14.2534 26.4117H86.2594C87.4672 26.4117 88.4464 25.4343 88.4464 24.2288C88.4464 23.0232 87.4672 22.0459 86.2594 22.0459Z" fill="white"/>
<path d="M86.2594 32.396H14.2534C13.0455 32.396 12.0664 33.3733 12.0664 34.5789C12.0664 35.7844 13.0455 36.7618 14.2534 36.7618H86.2594C87.4672 36.7618 88.4464 35.7844 88.4464 34.5789C88.4464 33.3733 87.4672 32.396 86.2594 32.396Z" fill="white"/>
</g>
<defs>
<linearGradient id="paint0_linear_3195_504" x1="76.1841" y1="-15.0413" x2="10.4533" y2="85.4726" gradientUnits="userSpaceOnUse">
<stop stop-color="#FDB5FF"/>
<stop offset="1" stop-color="#FC89FF"/>
</linearGradient>
</defs>
</svg>
