<svg width="134" height="145" viewBox="0 0 134 145" fill="none" xmlns="http://www.w3.org/2000/svg">
<path d="M13.7631 14.5165L1.71879 116.241C0.769531 124.258 6.51144 131.526 14.5437 132.473L103.924 143.017C111.956 143.964 119.237 138.233 120.186 130.216L132.231 28.4911C133.18 20.4737 127.438 13.2063 119.406 12.2588L30.0256 1.71537C21.9933 0.767875 14.7123 6.49915 13.7631 14.5165Z" fill="white"/>
<path d="M69.7382 59.2949C81.2455 59.2949 90.574 49.9837 90.574 38.4978C90.574 27.0119 81.2455 17.7007 69.7382 17.7007C58.2309 17.7007 48.9023 27.0119 48.9023 38.4978C48.9023 49.9837 58.2309 59.2949 69.7382 59.2949Z" fill="#FF723A"/>
<path d="M70.2837 41.0602C74.2557 41.0602 77.4756 37.8463 77.4756 33.8817C77.4756 29.9171 74.2557 26.7031 70.2837 26.7031C66.3117 26.7031 63.0918 29.9171 63.0918 33.8817C63.0918 37.8463 66.3117 41.0602 70.2837 41.0602Z" fill="white"/>
<path d="M67.8785 66.202C74.5305 66.202 79.923 60.8195 79.923 54.1799C79.923 47.5402 74.5305 42.1577 67.8785 42.1577C61.2265 42.1577 55.834 47.5402 55.834 54.1799C55.834 60.8195 61.2265 66.202 67.8785 66.202Z" fill="white"/>
<path d="M84.5353 69.862L48.0031 65.5526C47.1557 65.4526 46.3876 66.0573 46.2874 66.9031L46.0576 68.8444C45.9574 69.6902 46.5632 70.4569 47.4106 70.5569L83.9428 74.8662C84.7901 74.9662 85.5583 74.3615 85.6584 73.5157L85.8883 71.5744C85.9884 70.7286 85.3827 69.9619 84.5353 69.862Z" fill="#515151"/>
<path d="M92.5511 80.321L40.2543 74.152C39.4785 74.0605 38.7753 74.6141 38.6836 75.3884L38.6198 75.9277C38.5281 76.702 39.0826 77.4039 39.8584 77.4954L92.1553 83.6644C92.9311 83.7559 93.6343 83.2024 93.726 82.4281L93.7898 81.8888C93.8815 81.1145 93.3269 80.4125 92.5511 80.321Z" fill="#E0E0E0"/>
<path d="M101.697 122.792L23.3272 113.548C22.8617 113.493 22.4401 113.822 22.3854 114.284C22.3308 114.746 22.6638 115.164 23.1292 115.219L101.499 124.464C101.964 124.519 102.386 124.189 102.441 123.727C102.495 123.266 102.162 122.847 101.697 122.792Z" fill="#E0E0E0"/>
<path d="M74.2406 119.546L58.7569 117.72C58.2914 117.665 57.8698 117.994 57.8151 118.456C57.7604 118.918 58.0935 119.336 58.5589 119.391L74.0427 121.218C74.5081 121.273 74.9298 120.943 74.9845 120.481C75.0391 120.02 74.7061 119.601 74.2406 119.546Z" fill="#19C772"/>
<path d="M105.328 127.931L16.6074 117.465C15.4974 117.334 14.4913 118.126 14.3601 119.234C14.229 120.342 15.0224 121.346 16.1324 121.477L104.853 131.943C105.963 132.074 106.969 131.282 107.101 130.174C107.232 129.066 106.438 128.062 105.328 127.931Z" fill="#F75961"/>
<path d="M84.6807 125.501L16.6191 117.472C15.5092 117.341 14.503 118.133 14.3719 119.241C14.2407 120.349 15.0342 121.354 16.1441 121.484L84.2057 129.513C85.3156 129.644 86.3218 128.852 86.4529 127.744C86.5841 126.636 85.7907 125.632 84.6807 125.501Z" fill="#19C772"/>
<path d="M73.9445 84.9521L55.9431 82.8287C55.3165 82.7547 54.7488 83.1994 54.6751 83.8219C54.6015 84.4443 55.0496 85.0088 55.6762 85.0827L73.6776 87.2062C74.3042 87.2801 74.8719 86.8354 74.9456 86.213C75.0193 85.5906 74.5711 85.026 73.9445 84.9521Z" fill="#8C7BF3"/>
<path d="M42.382 103.617L24.3807 101.494C23.7541 101.42 23.1863 101.864 23.1126 102.487C23.039 103.109 23.4872 103.674 24.1138 103.748L42.1151 105.871C42.7417 105.945 43.3094 105.5 43.3831 104.878C43.4568 104.256 43.0086 103.691 42.382 103.617Z" fill="#E4E4E4"/>
<path d="M28.5906 98.0215L29.1346 93.4711L28.2969 93.3734L28.4165 92.3525L30.3859 92.5915L29.7222 98.1627L28.5906 98.0215Z" fill="black"/>
<path d="M31.2328 95.4373C31.4613 93.5368 32.3209 92.6788 33.6918 92.8418C35.0627 93.0047 35.6937 94.0363 35.4761 95.9369C35.2585 97.8374 34.3881 98.6953 33.0172 98.5324C31.6463 98.3695 31.0043 97.3378 31.2328 95.4373ZM34.0291 94.0146C33.8886 93.9336 33.7331 93.8818 33.5721 93.8626C33.4143 93.8288 33.2511 93.8288 33.0933 93.8626C32.9657 93.9074 32.8528 93.9863 32.7669 94.0907C32.668 94.2045 32.5939 94.3376 32.5493 94.4816C32.4887 94.6366 32.4414 94.7965 32.4079 94.9595C32.4079 95.1224 32.3426 95.307 32.3208 95.5133C32.2991 95.7197 32.3208 95.9151 32.3208 96.078C32.3104 96.2444 32.3104 96.4112 32.3208 96.5776C32.3317 96.7289 32.3724 96.8765 32.4405 97.012C32.4998 97.1375 32.5943 97.2432 32.7126 97.3161C32.8483 97.3987 33.0006 97.4506 33.1586 97.4681C33.3157 97.5077 33.4802 97.5077 33.6374 97.4681C33.7669 97.421 33.8827 97.3426 33.9746 97.2401C34.0672 97.1179 34.1406 96.9824 34.1923 96.8383C34.2479 96.6816 34.2951 96.5221 34.3337 96.3604C34.3337 96.2084 34.3881 96.0237 34.4207 95.8065C34.4534 95.5893 34.4207 95.4047 34.4207 95.2418C34.4311 95.0755 34.4311 94.9086 34.4207 94.7423C34.405 94.5954 34.3645 94.4522 34.3011 94.3187C34.2349 94.1979 34.1418 94.0939 34.0291 94.0146Z" fill="black"/>
<path d="M36.3148 96.034C36.5324 94.1335 37.4029 93.2755 38.7738 93.4384C40.1447 93.6013 40.7758 94.633 40.5582 96.5336C40.3406 98.4341 39.4701 99.292 38.0992 99.1291C36.7283 98.9662 36.0864 97.9345 36.3148 96.034ZM39.1002 94.6222C38.9676 94.5313 38.8142 94.4753 38.6541 94.4593C38.4925 94.4378 38.328 94.4564 38.1754 94.5136C38.0465 94.5502 37.9324 94.6262 37.849 94.7308C37.7509 94.8471 37.6736 94.9793 37.6205 95.1217C37.5648 95.2784 37.5176 95.4379 37.479 95.5996C37.479 95.7625 37.4246 95.9471 37.4029 96.1643C37.3811 96.3815 37.4029 96.5553 37.3485 96.7182C37.338 96.8845 37.338 97.0514 37.3485 97.2178C37.3593 97.369 37.4 97.5166 37.4682 97.6522C37.5274 97.7777 37.6219 97.8833 37.7402 97.9562C37.8759 98.0389 38.0282 98.0907 38.1863 98.1083C38.3434 98.1474 38.5078 98.1474 38.665 98.1083C38.7945 98.0611 38.9104 97.9828 39.0023 97.8802C39.0948 97.7581 39.1682 97.6226 39.2199 97.4784C39.277 97.3222 39.3242 97.1626 39.3613 97.0005C39.3613 96.8485 39.4157 96.6639 39.4484 96.4467C39.481 96.2295 39.4484 96.0449 39.4484 95.8928C39.4584 95.7228 39.4584 95.5524 39.4484 95.3824C39.4429 95.2337 39.4018 95.0885 39.3287 94.9588C39.2979 94.813 39.2171 94.6824 39.1002 94.5896V94.6222Z" fill="black"/>
<path d="M71.9836 107.115L53.9822 104.992C53.3556 104.918 52.7879 105.363 52.7142 105.985C52.6405 106.607 53.0887 107.172 53.7153 107.246L71.7167 109.369C72.3433 109.443 72.911 108.999 72.9847 108.376C73.0584 107.754 72.6102 107.189 71.9836 107.115Z" fill="#E4E4E4"/>
<path d="M57.0526 98.4776C57.2702 96.588 58.1407 95.7192 59.5007 95.8821C60.8607 96.045 61.5135 97.0876 61.2851 98.9772C61.0566 100.867 60.197 101.747 58.837 101.573C57.4769 101.399 56.8241 100.378 57.0526 98.4776ZM59.838 97.0658C59.7054 96.975 59.5519 96.919 59.3919 96.9029C59.2303 96.8805 59.0656 96.8992 58.9132 96.9572C58.7826 96.9967 58.6657 97.072 58.5759 97.1744C58.4856 97.2941 58.4123 97.4256 58.3582 97.5654C58.2961 97.7236 58.2488 97.8872 58.2168 98.0541C58.2168 98.2062 58.1624 98.3908 58.1298 98.608C58.0971 98.8252 58.1298 99.0098 58.1298 99.1618C58.1192 99.3282 58.1192 99.4951 58.1298 99.6614C58.1457 99.8118 58.1862 99.9585 58.2495 100.096C58.3157 100.217 58.4087 100.321 58.5215 100.4C58.6605 100.484 58.8166 100.536 58.9784 100.552C59.1356 100.591 59.3 100.591 59.4572 100.552C59.5834 100.504 59.6956 100.426 59.7836 100.324C59.8825 100.21 59.9566 100.077 60.0012 99.9329C60.0668 99.7759 60.1143 99.6119 60.1426 99.4442C60.182 99.2614 60.2111 99.0764 60.2297 98.8903C60.2434 98.706 60.2434 98.5209 60.2297 98.3365C60.2457 98.1703 60.2457 98.003 60.2297 97.8369C60.2188 97.6856 60.1782 97.538 60.11 97.4025C60.0612 97.2622 59.965 97.1432 59.838 97.0658Z" fill="black"/>
<path d="M62.3738 96.2515L66.1602 96.6967L66.0623 97.5112L63.364 102.127L62.1562 101.986L64.9525 97.4787L62.265 97.1528L62.3738 96.2515Z" fill="black"/>
<path d="M67.1701 96.7622L70.6845 97.1749L70.5757 98.1414L68.0623 97.8373L67.91 99.1406C68.0534 99.0233 68.2204 98.9381 68.3996 98.8908C68.6405 98.8455 68.8877 98.8455 69.1286 98.8908C69.3984 98.9215 69.6583 99.0104 69.8902 99.1514C70.1082 99.2798 70.2884 99.4634 70.4125 99.6836C70.621 100.084 70.7043 100.538 70.6518 100.987C70.6117 101.527 70.3618 102.029 69.9555 102.388C69.7427 102.55 69.4984 102.667 69.2381 102.731C68.9778 102.794 68.7071 102.803 68.4431 102.757C67.9169 102.731 67.4182 102.514 67.0395 102.149C66.7195 101.824 66.5398 101.388 66.5391 100.932L67.6271 101.063C67.6496 101.264 67.7466 101.45 67.8991 101.584C68.0872 101.739 68.3195 101.83 68.5628 101.845C68.6869 101.867 68.8146 101.86 68.9356 101.824C69.0566 101.789 69.1674 101.725 69.2591 101.638C69.457 101.437 69.5732 101.17 69.5855 100.889C69.6116 100.759 69.6115 100.624 69.5854 100.494C69.5592 100.363 69.5075 100.239 69.4332 100.129C69.3618 100.032 69.2704 99.9524 69.1653 99.8943C69.0601 99.8362 68.9437 99.8014 68.8239 99.7922C68.6248 99.7424 68.4144 99.7655 68.2308 99.8571C68.0472 99.9487 67.9025 100.103 67.8229 100.292L66.7349 100.161L67.1701 96.7622Z" fill="black"/>
<path d="M101.605 110.604L83.6033 108.481C82.9767 108.407 82.409 108.852 82.3353 109.474C82.2616 110.097 82.7098 110.661 83.3364 110.735L101.338 112.859C101.964 112.932 102.532 112.488 102.606 111.865C102.679 111.243 102.231 110.678 101.605 110.604Z" fill="#E4E4E4"/>
<path d="M86.5609 101.964C86.7894 100.063 87.649 99.1946 89.0199 99.3684C90.3908 99.5422 91.0219 100.563 90.8043 102.464C90.5867 104.364 89.7162 105.222 88.3453 105.059C86.9744 104.896 86.3324 103.854 86.5609 101.964ZM89.3572 100.541C89.2212 100.451 89.0634 100.398 88.9002 100.389C88.743 100.35 88.5786 100.35 88.4215 100.389C88.298 100.437 88.1866 100.511 88.0951 100.606C87.9948 100.724 87.9206 100.86 87.8774 101.008C87.8168 101.163 87.7695 101.323 87.736 101.486C87.6966 101.669 87.6676 101.854 87.649 102.04C87.649 102.257 87.649 102.442 87.649 102.605C87.6333 102.771 87.6333 102.938 87.649 103.104C87.6612 103.255 87.7017 103.403 87.7686 103.539C87.8319 103.659 87.9257 103.76 88.0406 103.832C88.1733 103.923 88.3267 103.979 88.4867 103.995C88.6484 104.017 88.813 103.999 88.9655 103.941C89.095 103.893 89.2108 103.815 89.3028 103.712C89.3931 103.593 89.4663 103.461 89.5204 103.322C89.576 103.165 89.6233 103.005 89.6618 102.844C89.6618 102.681 89.7162 102.496 89.7489 102.279C89.7815 102.062 89.7489 101.888 89.7489 101.725C89.7595 101.559 89.7595 101.392 89.7489 101.225C89.7315 101.075 89.6911 100.929 89.6292 100.791C89.5518 100.69 89.4558 100.606 89.3463 100.541H89.3572Z" fill="black"/>
<path d="M91.2598 105.331L91.3468 104.527L92.0432 104.049L92.7504 103.572C92.9027 103.463 93.0985 103.322 93.327 103.137C93.5165 103 93.6916 102.843 93.8493 102.67C94.1075 102.421 94.2823 102.099 94.3498 101.747C94.4151 101.193 94.1975 100.878 93.6752 100.824C93.5671 100.804 93.4559 100.81 93.3503 100.84C93.2447 100.87 93.1474 100.924 93.0659 100.998C92.8886 101.18 92.7809 101.418 92.7613 101.671L91.6732 101.541C91.6921 101.281 91.7646 101.029 91.8864 100.799C92.0081 100.569 92.1764 100.367 92.3804 100.205C92.8065 99.9232 93.3227 99.8108 93.8275 99.89C94.075 99.9042 94.3168 99.9695 94.5378 100.082C94.7587 100.194 94.954 100.35 95.1114 100.542C95.2529 100.721 95.3567 100.927 95.4165 101.147C95.4763 101.367 95.491 101.597 95.4596 101.823C95.4135 102.182 95.2748 102.522 95.057 102.811C94.9522 102.951 94.8396 103.086 94.7197 103.213C94.5941 103.363 94.4517 103.498 94.2954 103.615L93.8601 103.962L93.3814 104.31L92.9353 104.614L95.2311 104.886L95.1223 105.787L91.2598 105.331Z" fill="black"/>
<path d="M96.7882 100.248L100.313 100.661L100.194 101.627L97.6804 101.334L97.528 102.637C97.6716 102.52 97.8385 102.435 98.0176 102.387C98.258 102.337 98.5063 102.337 98.7466 102.387C99.0195 102.42 99.2827 102.508 99.5191 102.648C99.7341 102.777 99.9107 102.961 100.031 103.18C100.244 103.579 100.328 104.035 100.27 104.483C100.234 105.019 99.988 105.519 99.5844 105.874C99.3705 106.038 99.1248 106.157 98.8626 106.223C98.6005 106.288 98.3276 106.299 98.0612 106.254C97.537 106.219 97.041 106.004 96.6576 105.646C96.3445 105.318 96.1692 104.882 96.168 104.429L97.256 104.549C97.272 104.753 97.3654 104.943 97.5172 105.081C97.7064 105.234 97.9381 105.325 98.1808 105.341C98.3075 105.361 98.4369 105.351 98.5594 105.314C98.6819 105.276 98.7942 105.211 98.8881 105.124C99.0751 104.92 99.1898 104.661 99.2145 104.386C99.2591 104.122 99.2049 103.852 99.0621 103.626C98.989 103.528 98.8958 103.448 98.7888 103.39C98.6818 103.332 98.5635 103.297 98.442 103.289C98.2456 103.234 98.0359 103.254 97.8532 103.344C97.6704 103.434 97.5275 103.589 97.4519 103.778L96.3638 103.658L96.7882 100.248Z" fill="black"/>
</svg>
