<?xml version="1.0" encoding="utf-8"?>
<!-- Generator: Adobe Illustrator 26.0.1, SVG Export Plug-In . SVG Version: 6.00 Build 0)  -->
<svg version="1.1" id="Layer_1" xmlns="http://www.w3.org/2000/svg" xmlns:xlink="http://www.w3.org/1999/xlink" x="0px" y="0px"
	 viewBox="0 0 1175.8 1080" style="enable-background:new 0 0 1175.8 1080;" xml:space="preserve">
<style type="text/css">
	.st0{fill:#FAFBFC;}
	.st1{fill:#AB2F91;}
	.st2{fill:#D5433F;}
	.st3{fill:#FF7976;}
	.st4{fill:#181A5C;}
	.st5{fill:#812A8C;}
	.st6{fill:#642070;}
	.st7{fill:#FFFFFF;}
	.st8{fill:url(#SVGID_1_);}
	.st9{fill:#9744A5;}
	.st10{opacity:0.3;fill:#1B1B43;}
	.st11{fill:#CC29AE;}
	.st12{fill:#FB665A;}
	.st13{fill:#C5C5FF;}
	.st14{fill:#BCC7DB;}
	.st15{fill:none;stroke:#E8ECF7;stroke-width:1.3007;stroke-miterlimit:10;}
	.st16{fill:#D3DAEA;}
	.st17{fill:none;stroke:#99A8C8;stroke-width:1.3007;stroke-miterlimit:10;}
	.st18{fill:#E8ECF7;}
	.st19{fill:#AEB7D0;}
	.st20{fill:#CDD4E4;}
	.st21{fill:url(#SVGID_00000169544448733823558080000017400013750035561381_);}
	.st22{fill:#9AA9C9;}
	.st23{fill:none;stroke:#282F45;stroke-width:0.5;stroke-miterlimit:10;}
</style>
<rect class="st0" width="1175.8" height="762"/>
<g>
	<path class="st1" d="M426.5,449.4c-5.5-18.9-17-35.5-32.9-47.2l-6.4-4.7l5.4,111.8l41.8-32.3L426.5,449.4z"/>
	<path class="st2" d="M512.7,549.4l-70.3-44.9l-7.9-27.5l-41.8,32.3l0.4,7.9c0.8,15.8,10.4,29.7,24.9,35.9l68.2,29.4"/>
	
		<rect x="430.7" y="508.9" transform="matrix(0.6473 -0.7623 0.7623 0.6473 -234.2968 513.6407)" class="st3" width="14.2" height="2.2"/>
</g>
<g>
	<path class="st2" d="M541.2,592.7c-5.2-2.6-15.7-17.3-15.7-17.3c0.2,0.4,9.4,15.6,7,16.7c-6.5,3.2-10.1-5.8-20.5-9.4l-29.3-0.7
		c0,0,15-29.5,24.8-32.8c6.4-2.2,25.9,7.2,25.9,7.2c5,1.4,9.2,4.8,11.5,9.4l9.3,18.2C554.1,584,556.7,600.6,541.2,592.7z"/>
</g>
<g>
	<rect x="477.2" y="591.9" class="st4" width="80.3" height="15.9"/>
</g>
<g>
	<path class="st4" d="M343.3,277.6c-18.9-18.6-54.6-10.8-54,20.5c-38.9,10.3-41.1,53-25.4,74.9l13.5,1.1l3-15.9l7.8,16.2l37.8,2.4
		L343.3,277.6z"/>
</g>
<g>
	<g>
		<path class="st5" d="M438.6,629.8l51.1-4.5c33.3-2.9,62.2,23.9,63.8,59.3l11.6,251.7l-70.5,2.2L438.6,629.8z"/>
		<g>
			<polygon class="st6" points="500.3,936 502.4,1005.6 606.9,1005.6 555.4,962.7 552.1,929.2 			"/>
			
				<rect x="530.5" y="969" transform="matrix(0.7922 -0.6103 0.6103 0.7922 -479.5611 534.0865)" class="st7" width="27.7" height="4.3"/>
		</g>
	</g>
	<g>
		<g>
			<linearGradient id="SVGID_1_" gradientUnits="userSpaceOnUse" x1="476.4777" y1="967.3782" x2="583.127" y2="967.3782">
				<stop  offset="0" style="stop-color:#AB2F91"/>
				<stop  offset="1" style="stop-color:#812A8C"/>
			</linearGradient>
			<polygon class="st8" points="476.5,936 478.6,1005.6 583.1,1005.6 531.6,962.7 528.4,929.2 			"/>
			
				<rect x="506.7" y="969" transform="matrix(0.7922 -0.6103 0.6103 0.7922 -484.5033 519.5736)" class="st7" width="27.7" height="4.3"/>
		</g>
		<path class="st9" d="M554.3,942.9h-86.5l-61.6-189.6l-8.6-26.5l-123.2-0.5c-7.6-0.1-14.9-3.6-21.1-8.8
			c-13.1-11-19.1-28.4-16.8-45.4l10.8-77.1l183.1,23.8c34.7,4.5,62.8,30.5,69.9,64.8L554.3,942.9z"/>
		<polygon class="st5" points="423,726.7 406.2,753.2 397.6,726.7 		"/>
	</g>
	<polyline class="st5" points="244.2,612 391.1,618.1 241,639.7 244.2,612 	"/>
	<g>
		<path class="st1" d="M400.3,580.9c-0.9,3.6-1.8,7.1-2.8,10.7l-6.5,26.5l-85.4-3.5l-61.5-2.6c-16.3-0.7-28.1-15.8-24.8-31.8
			l28.7-137.9c3.7-23.5,22.7-41.5,46.3-43.9l70.2-7.2l22.7,6.5c22.2,11.9,22.2,33.4,23.2,47.6C415.2,506.9,409.5,544.3,400.3,580.9z
			"/>
		<path class="st10" d="M342.4,576.5c-0.9,3.6,56.1,11.5,55.1,15.1l-6.5,26.5l-85.4-3.5c-29.8-22.5-41-71.5-51.9-132.8L342.4,576.5z
			"/>
		<path class="st7" d="M325.5,431c3.7,4,8,7.5,12.8,10.1c4.7,2.6,9.9,4.5,15.2,5.1c5.3,0.7,10.9,0.2,15.5-2.3
			c4.7-2.4,7.8-7.3,8.3-12.7l0.8,0.1c0,2.8-0.7,5.7-2.1,8.2c-1.4,2.5-3.6,4.6-6.1,6.1c-5.1,2.9-11.1,3.5-16.7,2.8
			c-5.6-0.8-11.1-2.8-15.9-5.7c-4.8-2.9-9.1-6.7-12.5-11.2L325.5,431z"/>
		<path class="st7" d="M412.4,515.3l-1.6-0.1c1.6-21.8,0-48.5-4.7-79.5l1.6-0.2C412.4,466.5,414,493.4,412.4,515.3z"/>
	</g>
	<path class="st3" d="M374.9,347.3v59.6c0,0.5,0,1.1-0.1,1.6c-0.9,12.3-12.8,20.9-24.9,17.8c-17.9-4.6-30.3-20.8-30.2-39.3l0.3-39.7
		H374.9z"/>
	<path class="st2" d="M374.9,373v33.8c0,0.5,0,1.1-0.1,1.6c-15.9-2.6-34.4-21.1-38.8-41.1L374.9,373z"/>
</g>
<g>
	<path class="st3" d="M407.1,351.7c-0.8,4.7-1.9,9.6-3.4,14.2c-4.8,15.1-13.3,27.6-28.6,25.5c-35.9-5.1-55.9-42.2-55.9-42.2
		l24.6-28.1l16.5-22.2l49.4,21.4C409.7,320.3,410,335.4,407.1,351.7z"/>
	<path class="st4" d="M329.8,339.7c15.8-0.5,28-8.5,33.1-31.3c0,0,36.8,31.7,54.8,14.8c15.1-14.2-10.5-46.8-52.9-50.7
		c-15.4-1.4-30.8,3.4-42.9,13.1c-20.5,16.5-22.5,54.7-3.3,68L329.8,339.7z"/>
	<path class="st11" d="M311.4,299.7c-1-3.7-0.3-7.9,1.4-11.4c1.7-3.6,4.3-6.7,7.4-9.1c3.1-2.4,6.8-4.1,10.6-5
		c3.8-0.8,7.9-0.7,11.4,0.9c-3.6,1.2-6.8,2.4-9.8,4c-3,1.5-5.7,3.3-8.3,5.2c-2.6,2-4.9,4.2-7.1,6.7
		C314.9,293.5,313,296.3,311.4,299.7z"/>
	<g>
		
			<ellipse transform="matrix(0.9284 -0.3716 0.3716 0.9284 -103.9075 145.327)" class="st3" cx="325.1" cy="342.3" rx="12.3" ry="14.9"/>
		<path class="st2" d="M325.1,350.4c0.3-2.6,0.3-5.1-0.5-7.4c-0.7-2.3-2.2-4.3-3.9-6.4l0.5-0.7c2.4,1.3,4.5,3.6,5.4,6.4
			c0.9,2.8,0.5,5.9-0.8,8.3L325.1,350.4z"/>
	</g>
</g>
<g>
	<path class="st4" d="M384.2,342.4c0,2.2-1.6,4-3.7,4c-2,0-3.7-1.8-3.7-4c0-2.2,1.6-4,3.7-4C382.5,338.4,384.2,340.2,384.2,342.4z"
		/>
</g>
<g>
	<path class="st4" d="M403.3,345.6c-0.2,2-1.9,3.4-3.7,3.2c-1.8-0.2-3-2-2.8-4c0.2-2,1.9-3.4,3.7-3.2
		C402.3,341.9,403.6,343.7,403.3,345.6z"/>
</g>
<g>
	<path class="st4" d="M384,332.3c0.1,1.9-2.9,2.1-7.3,2.2c-4.5,0.1-7.5,1.5-7.6,0.3c0-1.2,3.3-4.3,7.6-5
		C381.3,329.1,383.8,330.1,384,332.3z"/>
</g>
<g>
	<path class="st4" d="M398.2,334.1c-0.3,1.9,1.9,2.3,5.2,2.9c3.3,0.6,5.4,2.2,5.6,1.1c0.2-1.2-1.9-4.6-5.1-5.7
		C400.6,331.2,398.6,331.9,398.2,334.1z"/>
</g>
<g>
	<path class="st4" d="M392.9,349c0.8,1,1.8,1.9,2.7,2.8l1.5,1.4c0.5,0.5,1,1,1.5,1.7c0.2,0.4,0.4,0.9,0.5,1.4c0,0.6-0.1,1.1-0.4,1.5
		c-0.5,0.8-1.1,1.3-1.7,1.8c-1.3,0.8-2.7,1.2-4,1.5l-0.3-0.8c1.2-0.8,2.3-1.4,3.2-2.2c0.4-0.4,0.9-0.9,1-1.2
		c0.2-0.4,0.1-0.5-0.1-0.9c-0.5-0.8-1.7-1.8-2.5-2.9c-0.9-1.1-1.7-2.3-2.1-3.7L392.9,349z"/>
</g>
<g>
	<path class="st4" d="M374.6,362.3c2.2,2.5,4.5,4.9,7.3,6.3c2.7,1.5,5.9,2,9.2,1.6l0.2,0.8c-1.6,0.7-3.4,1.1-5.2,1
		c-1.8-0.1-3.6-0.6-5.2-1.5c-3.2-1.8-5.5-4.6-7-7.8L374.6,362.3z"/>
</g>
<g>
	<circle class="st12" cx="361.6" cy="351.1" r="8.9"/>
</g>
<g>
	<path class="st12" d="M407.1,351.7c-0.8,4.7-1.9,9.6-3.4,14.2c-1.4-1.6-2.2-3.6-2.2-5.9C401.5,356.2,403.8,353,407.1,351.7z"/>
</g>
<g>
	<path class="st13" d="M494.7,590.4c-1.4-0.7-2.3-1.2-2.3-1.2l0.5-1c0,0,1,0.5,2.3,1.2L494.7,590.4z"/>
	<path class="st3" d="M516.8,595.7c-1.7,3.3-14.4-2.5-20.4-5.4c4.6,2.5,12.5,7.6,9,10.3c-2.8,2.2-9.1-2.5-29.6-11
		c3.1,1.5,21.5,10.2,16.8,13.5c-5,3.6-26.7-4.3-26.7-4.3l-18.7,10.1l0,0c-21.3,3-0.8-36.5-0.8-36.5l23.8-6c5.6-1.4,13.5,1,18.4,4
		C500.7,577.6,518.4,592.6,516.8,595.7z"/>
</g>
<g>
	<g>
		<polygon class="st1" points="305.3,457.2 253.8,481.7 270,520 324,495.1 		"/>
		<path class="st3" d="M448,608.5h-21.6l-77.8,0.5c-4.9,0-9.7-0.6-14.4-1.8c-9.2-2.4-17.9-6.9-25.3-13.1c-4.6-3.9-8.6-8.5-12-13.5
			c-2.5-3.8-4.6-7.8-6.4-12L270,520l54-24.9l28.2,57.2l96,20.2"/>
	</g>
	<path class="st12" d="M335.6,599.2c0,2.8-0.5,5.5-1.4,8c-9.2-2.4-17.9-6.9-25.3-13.1c-4.6-3.9-8.6-8.5-12-13.5
		c4.1-3.3,9.3-5.3,14.9-5.3C325,575.4,335.6,586,335.6,599.2z"/>
	<polygon class="st7" points="270.3,520.7 269.6,519.3 322.9,494.7 300.7,442.7 302.2,442.1 325,495.5 	"/>
</g>
<g>
	<g>
		<path class="st7" d="M677.1,301.1h48.8c7.9,0,14.2,6.4,14.2,14.2v48.8c0,7.9-6.4,14.2-14.2,14.2h-34.9l-15,20.7v-20.8
			c-7.4-0.5-13.2-6.7-13.2-14.2v-48.8C662.8,307.4,669.2,301.1,677.1,301.1z"/>
		<path class="st1" d="M675.1,379.2c-7.5-1-13.2-7.4-13.2-15v-48.8c0-8.4,6.8-15.2,15.2-15.2h48.8c8.4,0,15.2,6.8,15.2,15.2v48.8
			c0,8.4-6.8,15.2-15.2,15.2h-34.4L675.1,402V379.2z M677.1,302c-7.3,0-13.3,6-13.3,13.3v48.8c0,6.9,5.4,12.7,12.3,13.2l0.9,0.1
			v18.8l13.6-18.8h35.3c7.3,0,13.3-6,13.3-13.3v-48.8c0-7.3-6-13.3-13.3-13.3H677.1z"/>
	</g>
	<polygon class="st11" points="700.5,364.9 680.9,336.6 685.6,333.4 700,354.2 721.7,315.4 726.6,318.2 	"/>
</g>
<g>
	<g>
		<path class="st14" d="M919,861.2c0-2.7,17.4-4.9,38.8-4.9c21.4,0,38.8,2.2,38.8,4.9c0,2.7-17.4,4.9-38.8,4.9
			C936.4,866.1,919,863.9,919,861.2z"/>
	</g>
</g>
<g>
	<path class="st14" d="M966.9,747.2c-18-7.3-33.2-9.3-43.4-56.9c-6.3-29.2-7.2-63.5-7.2-63.5s55.7,48.6,60,81.5
		C980.7,741.2,966.9,747.2,966.9,747.2z"/>
	<path class="st15" d="M944.4,683.4c0,0,17.1,30.1,22.5,63.8c8.2,51.9-1,202.4-1,202.4"/>
</g>
<g>
	<path class="st16" d="M950.9,789.6c0,0,25.3-26.2-0.9-55.1c-26.3-28.9-54.5-38.1-54.5-38.1s2.3,45.2,17.8,71
		C928.6,793.2,950.9,789.6,950.9,789.6z"/>
	<path class="st17" d="M965.9,955.4c0,0,10.5-76.6-19.5-172.4c-6.9-22.2-30.8-62.6-30.8-62.6"/>
</g>
<g>
	<path class="st16" d="M977.4,763.5c0,0-26.9-34.3-2.1-83.5c24.8-49.2,52.7-69,52.7-69s0.1,68.8-14,111
		C999.9,764.4,977.4,763.5,977.4,763.5z"/>
	<path class="st17" d="M965.9,949.7c0,0,2.9-131.5,11.5-186.2c5.5-35,31.6-112,31.6-112"/>
</g>
<g>
	<path class="st14" d="M1071.9,708.7c0,0-29.3,34-43.5,44.4c-25.6,18.8-43.9,10.2-37.5-10.2C999.4,715.6,1071.9,708.7,1071.9,708.7z
		"/>
	<path class="st15" d="M1039.9,724.4c-11.9,7.7-88.5,29-76.7,226.6"/>
</g>
<g>
	<path class="st14" d="M861,772.4c0,0,29.3,34,43.5,44.4c25.6,18.8,43.9,10.2,37.5-10.2C933.6,779.2,861,772.4,861,772.4z"/>
	<path class="st15" d="M890.9,789.4c11.9,7.7,86.5,20.2,75,160.3"/>
</g>
<g>
	<path class="st16" d="M978.7,820.1c14-2.6,25.2-1.9,39.2-32.1c8.6-18.5,14-41.1,14-41.1s-46.9,25.1-54.6,46.3
		C969.6,814.4,978.7,820.1,978.7,820.1z"/>
	<path class="st17" d="M1007.2,774.4c0,0-24,32-33,53.5c-18.5,44.1-12.4,115.5-12.4,115.5"/>
</g>
<g>
	<g>
		<path class="st18" d="M919.2,1004.2c0,0,14.6,1,43.2,1c19.5,0,34.2-0.1,34.2-0.1V860.9c0,0-3.5,5.6-35.6,5.6
			c-35.6,0-41.8-5.6-41.8-5.6V1004.2z"/>
	</g>
</g>
<g>
	<rect x="275.1" y="748.3" class="st19" width="2.8" height="243.6"/>
	<path class="st20" d="M333.8,1007.7H219.2v-2.8c0-13.9,11.3-25.2,25.2-25.2h64.2c13.9,0,25.2,11.3,25.2,25.2V1007.7z"/>
	<g>
		
			<linearGradient id="SVGID_00000155847413030102398090000006709028262656864422_" gradientUnits="userSpaceOnUse" x1="535.2068" y1="536.8182" x2="770.8438" y2="536.8182">
			<stop  offset="0" style="stop-color:#AB2F91"/>
			<stop  offset="1" style="stop-color:#812A8C"/>
		</linearGradient>
		<polygon style="fill:url(#SVGID_00000155847413030102398090000006709028262656864422_);" points="696.6,607.8 535.2,607.8 
			609.4,465.8 770.8,465.8 		"/>
		<path class="st20" d="M344.6,759.1H208.4c-9.3,0-16.8-7.5-16.8-16.8v0c0-9.3,7.5-16.8,16.8-16.8h136.2c9.3,0,16.8,7.5,16.8,16.8v0
			C361.4,751.6,353.9,759.1,344.6,759.1z"/>
		<g>
			
				<rect x="559.4" y="588.5" transform="matrix(0.8458 -0.5336 0.5336 0.8458 -348.2289 424.894)" class="st19" width="2.8" height="452.4"/>
			
				<rect x="334.6" y="813.3" transform="matrix(0.5338 -0.8456 0.8456 0.5338 -427.5202 854.0618)" class="st19" width="452.4" height="2.8"/>
		</g>
		<rect x="349.3" y="607.8" class="st20" width="423" height="31.9"/>
		<rect x="108.3" y="1004.9" class="st22" width="1067.4" height="2.8"/>
	</g>
</g>
<ellipse transform="matrix(0.3188 -0.9478 0.9478 0.3188 -56.5072 991.9982)" class="st7" cx="661.9" cy="535.3" rx="14.6" ry="5.8"/>
<path class="st23" d="M1280.7,620.3h-11.1c-0.7,0-1.3-0.6-1.3-1.3v-11.1c0-0.7,0.6-1.3,1.3-1.3h11.1c0.7,0,1.3,0.6,1.3,1.3V619
	C1282.1,619.7,1281.5,620.3,1280.7,620.3z"/>
</svg>
