<svg width="53" height="60" viewBox="0 0 53 60" fill="none" xmlns="http://www.w3.org/2000/svg">
<path fill-rule="evenodd" clip-rule="evenodd" d="M52.1364 48.998C52.1361 50.3776 52.0255 51.755 51.8056 53.1177C51.4539 55.3465 50.8151 57.5229 49.9046 59.595L49.7315 59.994L49.6574 59.5678C49.4011 58.011 48.9061 56.5008 48.1891 55.0884C46.8179 52.4403 44.7147 50.2213 42.1183 48.6836C41.2467 48.1517 39.389 47.257 39.389 47.257L9.6471 32.776C8.68945 32.2456 7.76088 31.6665 6.86517 31.0411C6.28172 30.6394 5.72139 30.2065 5.18674 29.7444C4.80346 29.3878 4.43562 29.019 4.08943 28.6352C1.55179 25.805 0.10528 22.1966 0 18.4341C0 18.292 0 18.153 0 18.014C0 17.8749 0 17.6633 0 17.488C0 17.3772 0 17.2624 0 17.1435C0.0445663 16.2518 0.169726 15.3658 0.374014 14.4957C0.533518 13.3588 0.77208 12.2338 1.08804 11.1286C2.20961 7.15141 4.25906 3.48269 7.07536 0.410706V0.410706C6.8151 1.55691 6.68449 2.72762 6.68589 3.90174C6.68589 4.33396 6.68589 4.75711 6.73226 5.18329C6.94244 7.69517 7.75711 10.1228 9.10977 12.2681C10.4624 14.4134 12.3147 16.2155 14.5155 17.5273L24.2213 22.2546L24.6602 22.4692L42.5696 31.1892C45.768 32.7809 48.354 35.3415 49.9417 38.4886L49.9634 38.5461C51.3979 41.8517 52.1339 45.407 52.1271 48.998H52.1364Z" fill="url(#paint0_linear_1339_283)"/>
<path fill-rule="evenodd" clip-rule="evenodd" d="M52.1364 48.998C52.1361 50.3776 52.0255 51.755 51.8056 53.1177C51.4539 55.3465 50.8151 57.5229 49.9046 59.595L49.7315 59.994L49.6574 59.5678C49.4011 58.011 48.9061 56.5008 48.1891 55.0884C46.8179 52.4403 44.7147 50.2213 42.1183 48.6836C41.2467 48.1517 39.389 47.257 39.389 47.257L9.6471 32.776C8.68945 32.2456 7.76088 31.6665 6.86517 31.0411C6.28172 30.6394 5.72139 30.2065 5.18674 29.7444C4.80346 29.3878 4.43562 29.019 4.08943 28.6352C1.55179 25.805 0.10528 22.1966 0 18.4341C0 18.292 0 18.153 0 18.014C0 17.8749 0 17.6633 0 17.488C0 17.3772 0 17.2624 0 17.1435C0.0445663 16.2518 0.169726 15.3658 0.374014 14.4957C0.533518 13.3588 0.77208 12.2338 1.08804 11.1286C2.20961 7.15141 4.25906 3.48269 7.07536 0.410706V0.410706C6.8151 1.55691 6.68449 2.72762 6.68589 3.90174C6.68589 4.33396 6.68589 4.75711 6.73226 5.18329C6.94244 7.69517 7.75711 10.1228 9.10977 12.2681C10.4624 14.4134 12.3147 16.2155 14.5155 17.5273L24.2213 22.2546L24.6602 22.4692L42.5696 31.1892C45.768 32.7809 48.354 35.3415 49.9417 38.4886L49.9634 38.5461C51.3979 41.8517 52.1339 45.407 52.1271 48.998H52.1364Z" fill="url(#paint1_linear_1339_283)"/>
<path fill-rule="evenodd" clip-rule="evenodd" d="M12.8893 53.9362C12.8856 52.7227 12.4698 51.5448 11.7072 50.5875C10.9447 49.6301 9.87855 48.9475 8.67626 48.6468C8.57425 48.6226 8.47534 48.6015 8.36715 48.5833C7.1646 48.2831 6.09819 47.6006 5.33555 46.6431C4.57292 45.6857 4.15731 44.5075 4.15408 43.2939C4.15224 42.7826 4.2251 42.2737 4.37046 41.7826C4.38591 41.7252 4.40755 41.6678 4.423 41.6073C3.18434 42.5034 2.15438 43.6466 1.40127 44.961C0.648163 46.2755 0.189072 47.7313 0.0543667 49.2322C-0.0803382 50.7332 0.112414 52.245 0.619873 53.6676C1.12733 55.0902 1.93793 56.3913 2.99804 57.4847C3.19277 57.6932 3.40296 57.8867 3.61625 58.0892C3.66261 58.1255 3.70279 58.1617 3.74916 58.204C4.44048 58.7436 5.25186 59.1166 6.11779 59.293C6.98372 59.4694 7.87993 59.4441 8.73406 59.2194C9.58819 58.9946 10.3763 58.5766 11.0348 57.9991C11.6932 57.4216 12.2036 56.7008 12.5246 55.8948C12.7691 55.2697 12.8928 54.6055 12.8893 53.9362Z" fill="url(#paint2_linear_1339_283)"/>
<path fill-rule="evenodd" clip-rule="evenodd" d="M12.8893 53.9362C12.8856 52.7227 12.4698 51.5448 11.7072 50.5875C10.9447 49.6301 9.87855 48.9475 8.67626 48.6468C8.57425 48.6226 8.47534 48.6015 8.36715 48.5833C7.1646 48.2831 6.09819 47.6006 5.33555 46.6431C4.57292 45.6857 4.15731 44.5075 4.15408 43.2939C4.15224 42.7826 4.2251 42.2737 4.37046 41.7826C4.38591 41.7252 4.40755 41.6678 4.423 41.6073C3.18434 42.5034 2.15438 43.6466 1.40127 44.961C0.648163 46.2755 0.189072 47.7313 0.0543667 49.2322C-0.0803382 50.7332 0.112414 52.245 0.619873 53.6676C1.12733 55.0902 1.93793 56.3913 2.99804 57.4847C3.19277 57.6932 3.40296 57.8867 3.61625 58.0892C3.66261 58.1255 3.70279 58.1617 3.74916 58.204C4.44048 58.7436 5.25186 59.1166 6.11779 59.293C6.98372 59.4694 7.87993 59.4441 8.73406 59.2194C9.58819 58.9946 10.3763 58.5766 11.0348 57.9991C11.6932 57.4216 12.2036 56.7008 12.5246 55.8948C12.7691 55.2697 12.8928 54.6055 12.8893 53.9362Z" fill="url(#paint3_linear_1339_283)"/>
<path fill-rule="evenodd" clip-rule="evenodd" d="M12.8806 53.6253C12.8212 52.6449 12.4928 51.6983 11.9298 50.8851C11.3668 50.0718 10.5901 49.422 9.68141 49.0038C9.50085 48.9198 9.31502 48.8471 9.12502 48.7862C8.9751 48.7321 8.8224 48.6857 8.66755 48.6471C8.56555 48.623 8.46663 48.6018 8.35845 48.5837C7.1559 48.2834 6.08948 47.601 5.32684 46.6435C4.56421 45.686 4.14861 44.5078 4.14538 43.2942C4.14353 42.783 4.21639 42.2741 4.36175 41.783C3.16068 43.7718 2.65432 46.0889 2.91921 48.3841C3.1841 50.6793 4.20583 52.8277 5.82999 54.5048C6.02472 54.7164 6.238 54.9098 6.44819 55.1093C6.49568 55.1451 6.54109 55.1834 6.5842 55.2242C6.82787 55.4134 7.0874 55.5823 7.36005 55.7289C7.63391 55.8755 7.92439 55.9901 8.22553 56.0705V56.0705C8.54823 56.1545 8.88072 56.1972 9.21466 56.1974H9.35067C9.86458 56.1801 10.3696 56.0613 10.8354 55.8484C11.3013 55.6354 11.7183 55.3326 12.0615 54.9582C12.4294 54.5767 12.7088 54.122 12.8806 53.6253Z" fill="url(#paint4_linear_1339_283)"/>
<path fill-rule="evenodd" clip-rule="evenodd" d="M12.8806 53.6253C12.8212 52.6449 12.4928 51.6983 11.9298 50.8851C11.3668 50.0718 10.5901 49.422 9.68141 49.0038C9.50085 48.9198 9.31502 48.8471 9.12502 48.7862C8.9751 48.7321 8.8224 48.6857 8.66755 48.6471C8.56555 48.623 8.46663 48.6018 8.35845 48.5837C7.1559 48.2834 6.08948 47.601 5.32684 46.6435C4.56421 45.686 4.14861 44.5078 4.14538 43.2942C4.14353 42.783 4.21639 42.2741 4.36175 41.783C3.16068 43.7718 2.65432 46.0889 2.91921 48.3841C3.1841 50.6793 4.20583 52.8277 5.82999 54.5048C6.02472 54.7164 6.238 54.9098 6.44819 55.1093C6.49568 55.1451 6.54109 55.1834 6.5842 55.2242C6.82787 55.4134 7.0874 55.5823 7.36005 55.7289C7.63391 55.8755 7.92439 55.9901 8.22553 56.0705V56.0705C8.54823 56.1545 8.88072 56.1972 9.21466 56.1974H9.35067C9.86458 56.1801 10.3696 56.0613 10.8354 55.8484C11.3013 55.6354 11.7183 55.3326 12.0615 54.9582C12.4294 54.5767 12.7088 54.122 12.8806 53.6253Z" fill="url(#paint5_linear_1339_283)"/>
<path fill-rule="evenodd" clip-rule="evenodd" d="M52.0081 9.22098C52.0086 10.8853 51.6101 12.5267 50.8446 14.0132C50.0792 15.4997 48.968 16.7901 47.6003 17.7808C47.7798 17.24 47.8706 16.6749 47.8692 16.1063C47.866 14.8927 47.4503 13.7145 46.6877 12.7571C45.9251 11.7996 44.8587 11.1171 43.6561 10.8169L43.347 10.7534C42.5428 10.5452 41.7962 10.1641 41.1617 9.63799C40.5272 9.11184 40.0207 8.45389 39.6793 7.71208C39.3378 6.97026 39.1699 6.16329 39.1878 5.34998C39.2057 4.53667 39.409 3.73752 39.7829 3.01078C40.1567 2.28404 40.6917 1.64802 41.3488 1.1491C42.0059 0.650169 42.7685 0.300902 43.5812 0.126754C44.3938 -0.047393 45.236 -0.0420318 46.0462 0.142447C46.8565 0.326926 47.6144 0.685873 48.2648 1.19312C48.3112 1.23242 48.3514 1.27171 48.3977 1.30798C48.6141 1.50142 48.8243 1.69789 49.016 1.91249C50.9347 3.88343 52.0058 6.4998 52.0081 9.22098V9.22098Z" fill="url(#paint6_linear_1339_283)"/>
<path fill-rule="evenodd" clip-rule="evenodd" d="M52.0081 9.22098C52.0086 10.8853 51.6101 12.5267 50.8446 14.0132C50.0792 15.4997 48.968 16.7901 47.6003 17.7808C47.7798 17.24 47.8706 16.6749 47.8692 16.1063C47.866 14.8927 47.4503 13.7145 46.6877 12.7571C45.9251 11.7996 44.8587 11.1171 43.6561 10.8169L43.347 10.7534C42.5428 10.5452 41.7962 10.1641 41.1617 9.63799C40.5272 9.11184 40.0207 8.45389 39.6793 7.71208C39.3378 6.97026 39.1699 6.16329 39.1878 5.34998C39.2057 4.53667 39.409 3.73752 39.7829 3.01078C40.1567 2.28404 40.6917 1.64802 41.3488 1.1491C42.0059 0.650169 42.7685 0.300902 43.5812 0.126754C44.3938 -0.047393 45.236 -0.0420318 46.0462 0.142447C46.8565 0.326926 47.6144 0.685873 48.2648 1.19312C48.3112 1.23242 48.3514 1.27171 48.3977 1.30798C48.6141 1.50142 48.8243 1.69789 49.016 1.91249C50.9347 3.88343 52.0058 6.4998 52.0081 9.22098V9.22098Z" fill="url(#paint7_linear_1339_283)"/>
<path fill-rule="evenodd" clip-rule="evenodd" d="M49.7315 60L49.6574 59.5738C49.4011 58.017 48.9061 56.5069 48.1891 55.0944C46.8179 52.4463 44.7147 50.2274 42.1183 48.6897C41.2467 48.1577 39.389 47.263 39.389 47.263L9.6471 32.776C8.68945 32.2456 7.76088 31.6665 6.86517 31.0411C6.28172 30.6394 5.72139 30.2065 5.18674 29.7444C4.80346 29.3878 4.43562 29.019 4.08943 28.6352C1.55179 25.805 0.10528 22.1966 0 18.4341C0 18.292 0 18.153 0 18.014C0 17.8749 0 17.6633 0 17.488C0 17.3772 0 17.2624 0 17.1435C0.0445663 16.2518 0.169726 15.3658 0.374014 14.4957C0.533518 13.3588 0.77208 12.2338 1.08804 11.1286C2.20961 7.15141 4.25906 3.48269 7.07536 0.410706C6.94554 0.670644 0.176189 14.4534 8.95471 22.9014C10.041 24.0147 11.2912 24.9632 12.6639 25.7154L40.7397 39.5223C40.7397 39.5223 50.8041 44.0501 49.7315 60Z" fill="url(#paint8_linear_1339_283)"/>
<path fill-rule="evenodd" clip-rule="evenodd" d="M49.7315 60L49.6574 59.5738C49.4011 58.017 48.9061 56.5069 48.1891 55.0944C46.8179 52.4463 44.7147 50.2274 42.1183 48.6897C41.2467 48.1577 39.389 47.263 39.389 47.263L9.6471 32.776C8.68945 32.2456 7.76088 31.6665 6.86517 31.0411C6.28172 30.6394 5.72139 30.2065 5.18674 29.7444C4.80346 29.3878 4.43562 29.019 4.08943 28.6352C1.55179 25.805 0.10528 22.1966 0 18.4341C0 18.292 0 18.153 0 18.014C0 17.8749 0 17.6633 0 17.488C0 17.3772 0 17.2624 0 17.1435C0.0445663 16.2518 0.169726 15.3658 0.374014 14.4957C0.533518 13.3588 0.77208 12.2338 1.08804 11.1286C2.20961 7.15141 4.25906 3.48269 7.07536 0.410706C6.94554 0.670644 0.176189 14.4534 8.95471 22.9014C10.041 24.0147 11.2912 24.9632 12.6639 25.7154L40.7397 39.5223C40.7397 39.5223 50.8041 44.0501 49.7315 60Z" fill="url(#paint9_linear_1339_283)"/>
<path fill-rule="evenodd" clip-rule="evenodd" d="M39.1514 5.79997C39.2131 6.77859 39.5441 7.72271 40.1095 8.53249C40.6748 9.34227 41.4534 9.98761 42.3629 10.4003C42.5407 10.4834 42.7234 10.5561 42.9101 10.6179C43.06 10.672 43.2127 10.7184 43.3675 10.7569L43.6766 10.8234C44.4018 11.0025 45.0826 11.3227 45.6783 11.7649C46.274 12.2071 46.7724 12.7622 47.1438 13.3971C47.5151 14.0319 47.7518 14.7334 47.8396 15.4597C47.9274 16.186 47.8645 16.9221 47.6548 17.6241C48.8603 15.6375 49.3721 13.3213 49.1128 11.0251C48.8535 8.72905 47.8373 6.57779 46.2175 4.89624C46.0196 4.68768 45.8094 4.49122 45.5992 4.29173C45.5498 4.25848 45.5127 4.21617 45.4632 4.17687C45.2153 3.9869 44.9505 3.81899 44.6719 3.67513C44.4001 3.52586 44.1105 3.41012 43.8095 3.33056V3.33056C43.4873 3.24408 43.1546 3.20037 42.8204 3.20059H42.6844C42.1706 3.21641 41.6654 3.33353 41.1991 3.54492C40.7327 3.7563 40.3149 4.05761 39.9705 4.43077C39.6028 4.82632 39.3238 5.29271 39.1514 5.79997V5.79997Z" fill="url(#paint10_linear_1339_283)"/>
<path fill-rule="evenodd" clip-rule="evenodd" d="M39.1514 5.79997C39.2131 6.77859 39.5441 7.72271 40.1095 8.53249C40.6748 9.34227 41.4534 9.98761 42.3629 10.4003C42.5407 10.4834 42.7234 10.5561 42.9101 10.6179C43.06 10.672 43.2127 10.7184 43.3675 10.7569L43.6766 10.8234C44.4018 11.0025 45.0826 11.3227 45.6783 11.7649C46.274 12.2071 46.7724 12.7622 47.1438 13.3971C47.5151 14.0319 47.7518 14.7334 47.8396 15.4597C47.9274 16.186 47.8645 16.9221 47.6548 17.6241C48.8603 15.6375 49.3721 13.3213 49.1128 11.0251C48.8535 8.72905 47.8373 6.57779 46.2175 4.89624C46.0196 4.68768 45.8094 4.49122 45.5992 4.29173C45.5498 4.25848 45.5127 4.21617 45.4632 4.17687C45.2153 3.9869 44.9505 3.81899 44.6719 3.67513C44.4001 3.52586 44.1105 3.41012 43.8095 3.33056V3.33056C43.4873 3.24408 43.1546 3.20037 42.8204 3.20059H42.6844C42.1706 3.21641 41.6654 3.33353 41.1991 3.54492C40.7327 3.7563 40.3149 4.05761 39.9705 4.43077C39.6028 4.82632 39.3238 5.29271 39.1514 5.79997V5.79997Z" fill="url(#paint11_linear_1339_283)"/>
<defs>
<linearGradient id="paint0_linear_1339_283" x1="-0.00309103" y1="30.2008" x2="52.1364" y2="30.2008" gradientUnits="userSpaceOnUse">
<stop stop-color="#7B2A8B"/>
<stop offset="1" stop-color="#AD2F92"/>
</linearGradient>
<linearGradient id="paint1_linear_1339_283" x1="-0.00309103" y1="30.2008" x2="52.1364" y2="30.2008" gradientUnits="userSpaceOnUse">
<stop stop-color="#7B2A8B"/>
<stop offset="1" stop-color="#AD2F92"/>
</linearGradient>
<linearGradient id="paint2_linear_1339_283" x1="0.0182889" y1="50.5087" x2="12.8893" y2="50.5087" gradientUnits="userSpaceOnUse">
<stop stop-color="#7B2A8B"/>
<stop offset="1" stop-color="#AD2F92"/>
</linearGradient>
<linearGradient id="paint3_linear_1339_283" x1="0.0182889" y1="50.5087" x2="12.8893" y2="50.5087" gradientUnits="userSpaceOnUse">
<stop stop-color="#7B2A8B"/>
<stop offset="1" stop-color="#AD2F92"/>
</linearGradient>
<linearGradient id="paint4_linear_1339_283" x1="2.86569" y1="48.9978" x2="12.8806" y2="48.9978" gradientUnits="userSpaceOnUse">
<stop stop-color="#AD2F92"/>
<stop offset="1" stop-color="#7B2A8B"/>
</linearGradient>
<linearGradient id="paint5_linear_1339_283" x1="2.86569" y1="48.9978" x2="12.8806" y2="48.9978" gradientUnits="userSpaceOnUse">
<stop stop-color="#AD2F92"/>
<stop offset="1" stop-color="#7B2A8B"/>
</linearGradient>
<linearGradient id="paint6_linear_1339_283" x1="39.1401" y1="8.88548" x2="52.0081" y2="8.88548" gradientUnits="userSpaceOnUse">
<stop stop-color="#AD2F92"/>
<stop offset="1" stop-color="#7B2A8B"/>
</linearGradient>
<linearGradient id="paint7_linear_1339_283" x1="39.1401" y1="8.88548" x2="52.0081" y2="8.88548" gradientUnits="userSpaceOnUse">
<stop stop-color="#AD2F92"/>
<stop offset="1" stop-color="#7B2A8B"/>
</linearGradient>
<linearGradient id="paint8_linear_1339_283" x1="-0.00309103" y1="30.2008" x2="49.8119" y2="30.2008" gradientUnits="userSpaceOnUse">
<stop stop-color="#AD2F92"/>
<stop offset="1" stop-color="#7B2A8B"/>
</linearGradient>
<linearGradient id="paint9_linear_1339_283" x1="-0.00309103" y1="30.2008" x2="49.8119" y2="30.2008" gradientUnits="userSpaceOnUse">
<stop stop-color="#AD2F92"/>
<stop offset="1" stop-color="#7B2A8B"/>
</linearGradient>
<linearGradient id="paint10_linear_1339_283" x1="39.1514" y1="10.4124" x2="49.1756" y2="10.4124" gradientUnits="userSpaceOnUse">
<stop stop-color="#7B2A8B"/>
<stop offset="1" stop-color="#AD2F92"/>
</linearGradient>
<linearGradient id="paint11_linear_1339_283" x1="39.1514" y1="10.4124" x2="49.1756" y2="10.4124" gradientUnits="userSpaceOnUse">
<stop stop-color="#7B2A8B"/>
<stop offset="1" stop-color="#AD2F92"/>
</linearGradient>
</defs>
</svg>
